<svg width="390" height="204" viewBox="0 0 390 204" fill="none" xmlns="http://www.w3.org/2000/svg">
<path d="M12.8452 16.3389H4.96916L3.51831 20.3547H1.03114L7.55997 2.40039H10.2803L16.7832 20.3547H14.2961L12.8452 16.3389ZM12.1716 14.4217L8.90719 5.30209L5.64277 14.4217H12.1716Z" fill="#30D158"/>
<path d="M18.4887 13.2041C18.4887 11.7532 18.7824 10.4837 19.3696 9.39557C19.9568 8.29016 20.76 7.43519 21.779 6.83067C22.8154 6.22615 23.964 5.92388 25.2248 5.92388C26.4684 5.92388 27.5479 6.1916 28.4633 6.72703C29.3788 7.26247 30.061 7.93608 30.5101 8.74786V6.15706H32.8936V20.3547H30.5101V17.7121C30.0437 18.5411 29.3442 19.232 28.4115 19.7847C27.4961 20.3201 26.4252 20.5879 25.1989 20.5879C23.9381 20.5879 22.7981 20.277 21.779 19.6552C20.76 19.0334 19.9568 18.1611 19.3696 17.0384C18.7824 15.9158 18.4887 14.6376 18.4887 13.2041ZM30.5101 13.23C30.5101 12.1591 30.2942 11.2264 29.8624 10.4319C29.4306 9.63737 28.8433 9.03285 28.1006 8.61832C27.3752 8.18652 26.572 7.97062 25.6912 7.97062C24.8103 7.97062 24.0071 8.17789 23.2817 8.59242C22.5563 9.00694 21.9777 9.61147 21.5459 10.406C21.1141 11.2005 20.8982 12.1332 20.8982 13.2041C20.8982 14.2922 21.1141 15.2422 21.5459 16.0539C21.9777 16.8485 22.5563 17.4616 23.2817 17.8934C24.0071 18.3079 24.8103 18.5152 25.6912 18.5152C26.572 18.5152 27.3752 18.3079 28.1006 17.8934C28.8433 17.4616 29.4306 16.8485 29.8624 16.0539C30.2942 15.2422 30.5101 14.3008 30.5101 13.23Z" fill="#30D158"/>
<path d="M52.3087 11.0537C52.965 11.1573 53.5609 11.425 54.0963 11.8568C54.649 12.2886 55.0808 12.8241 55.3917 13.4631C55.7199 14.1022 55.884 14.7844 55.884 15.5099C55.884 16.4253 55.6508 17.2543 55.1845 17.997C54.7181 18.7225 54.0359 19.3011 53.1377 19.7329C52.2569 20.1474 51.2119 20.3547 50.0029 20.3547H43.2668V2.29675H49.7438C50.9701 2.29675 52.0151 2.50402 52.8787 2.91855C53.7423 3.31581 54.39 3.85987 54.8218 4.55076C55.2536 5.24164 55.4695 6.01888 55.4695 6.88248C55.4695 7.95335 55.1758 8.84286 54.5886 9.55101C54.0186 10.2419 53.2586 10.7428 52.3087 11.0537ZM45.6244 10.0951H49.5883C50.6937 10.0951 51.5487 9.836 52.1532 9.31784C52.7578 8.79968 53.06 8.08289 53.06 7.16747C53.06 6.25205 52.7578 5.53526 52.1532 5.0171C51.5487 4.49894 50.6765 4.23986 49.5365 4.23986H45.6244V10.0951ZM49.7956 18.4116C50.9701 18.4116 51.8855 18.1352 52.5418 17.5825C53.1982 17.0298 53.5264 16.2612 53.5264 15.2767C53.5264 14.2749 53.1809 13.489 52.49 12.9191C51.7991 12.3318 50.8751 12.0382 49.7179 12.0382H45.6244V18.4116H49.7956Z" fill="#30D158"/>
<path d="M61.2542 8.79968C61.7379 7.95335 62.446 7.26247 63.3787 6.72703C64.3114 6.1916 65.3736 5.92388 66.5654 5.92388C67.8435 5.92388 68.9921 6.22615 70.0112 6.83067C71.0302 7.43519 71.8334 8.29016 72.4206 9.39557C73.0079 10.4837 73.3015 11.7532 73.3015 13.2041C73.3015 14.6376 73.0079 15.9158 72.4206 17.0384C71.8334 18.1611 71.0216 19.0334 69.9853 19.6552C68.9662 20.277 67.8263 20.5879 66.5654 20.5879C65.3391 20.5879 64.2596 20.3201 63.3269 19.7847C62.4115 19.2493 61.7206 18.567 61.2542 17.738V20.3547H58.8966V1.18271H61.2542V8.79968ZM70.8921 13.2041C70.8921 12.1332 70.6761 11.2005 70.2443 10.406C69.8125 9.61147 69.2253 9.00694 68.4826 8.59242C67.7572 8.17789 66.954 7.97062 66.0731 7.97062C65.2095 7.97062 64.4064 8.18652 63.6637 8.61832C62.9383 9.03285 62.351 9.64601 61.9019 10.4578C61.4701 11.2523 61.2542 12.1764 61.2542 13.23C61.2542 14.3008 61.4701 15.2422 61.9019 16.0539C62.351 16.8485 62.9383 17.4616 63.6637 17.8934C64.4064 18.3079 65.2095 18.5152 66.0731 18.5152C66.954 18.5152 67.7572 18.3079 68.4826 17.8934C69.2253 17.4616 69.8125 16.8485 70.2443 16.0539C70.6761 15.2422 70.8921 14.2922 70.8921 13.2041Z" fill="#30D158"/>
<path d="M81.9129 11.3128C81.9129 9.55101 82.3102 7.97062 83.1047 6.57159C83.8992 5.15528 84.9787 4.04987 86.3432 3.25535C87.7249 2.46084 89.2535 2.06358 90.9289 2.06358C92.8979 2.06358 94.6165 2.53856 96.0846 3.48853C97.5527 4.43849 98.6236 5.78571 99.2972 7.53018H96.4732C95.9724 6.44205 95.2469 5.60435 94.297 5.0171C93.3643 4.42985 92.2416 4.13623 90.9289 4.13623C89.6681 4.13623 88.5367 4.42985 87.5349 5.0171C86.5332 5.60435 85.7473 6.44205 85.1773 7.53018C84.6073 8.60105 84.3224 9.86191 84.3224 11.3128C84.3224 12.7463 84.6073 14.0072 85.1773 15.0953C85.7473 16.1662 86.5332 16.9953 87.5349 17.5825C88.5367 18.1698 89.6681 18.4634 90.9289 18.4634C92.2416 18.4634 93.3643 18.1784 94.297 17.6084C95.2469 17.0212 95.9724 16.1835 96.4732 15.0953H99.2972C98.6236 16.8225 97.5527 18.1611 96.0846 19.1111C94.6165 20.0438 92.8979 20.5101 90.9289 20.5101C89.2535 20.5101 87.7249 20.1215 86.3432 19.3443C84.9787 18.5498 83.8992 17.453 83.1047 16.0539C82.3102 14.6549 81.9129 13.0745 81.9129 11.3128Z" fill="#30D158"/>
<path d="M101.667 13.23C101.667 11.7618 101.96 10.4837 102.548 9.39557C103.135 8.29016 103.947 7.43519 104.983 6.83067C106.037 6.22615 107.237 5.92388 108.584 5.92388C110.329 5.92388 111.762 6.34705 112.885 7.19338C114.025 8.03971 114.776 9.21421 115.139 10.7169H112.6C112.358 9.85328 111.883 9.17103 111.175 8.67014C110.484 8.16925 109.621 7.91881 108.584 7.91881C107.237 7.91881 106.149 8.38515 105.32 9.31784C104.491 10.2333 104.076 11.5373 104.076 13.23C104.076 14.9399 104.491 16.2612 105.32 17.1939C106.149 18.1266 107.237 18.5929 108.584 18.5929C109.621 18.5929 110.484 18.3511 111.175 17.8675C111.866 17.3839 112.341 16.693 112.6 15.7949H115.139C114.759 17.2457 113.999 18.4116 112.859 19.2924C111.719 20.1561 110.294 20.5879 108.584 20.5879C107.237 20.5879 106.037 20.2856 104.983 19.6811C103.947 19.0765 103.135 18.2216 102.548 17.1162C101.96 16.0108 101.667 14.7154 101.667 13.23Z" fill="#30D158"/>
<path d="M130.296 2.29675C132.265 2.29675 133.966 2.6681 135.4 3.4108C136.851 4.13623 137.956 5.18119 138.716 6.54568C139.493 7.91017 139.882 9.51647 139.882 11.3646C139.882 13.2127 139.493 14.819 138.716 16.1835C137.956 17.5307 136.851 18.567 135.4 19.2924C133.966 20.0006 132.265 20.3547 130.296 20.3547H124.674V2.29675H130.296ZM130.296 18.4116C132.628 18.4116 134.407 17.7984 135.633 16.5721C136.859 15.3285 137.472 13.5927 137.472 11.3646C137.472 9.11921 136.851 7.3661 135.607 6.10524C134.381 4.84438 132.61 4.21395 130.296 4.21395H127.031V18.4116H130.296Z" fill="#30D158"/>
<path d="M141.852 13.2041C141.852 11.7532 142.145 10.4837 142.733 9.39557C143.32 8.29016 144.123 7.43519 145.142 6.83067C146.178 6.22615 147.336 5.92388 148.614 5.92388C149.719 5.92388 150.747 6.18296 151.697 6.70113C152.647 7.20202 153.372 7.86699 153.873 8.69605V1.18271H156.257V20.3547H153.873V17.6861C153.407 18.5325 152.716 19.232 151.8 19.7847C150.885 20.3201 149.814 20.5879 148.588 20.5879C147.327 20.5879 146.178 20.277 145.142 19.6552C144.123 19.0334 143.32 18.1611 142.733 17.0384C142.145 15.9158 141.852 14.6376 141.852 13.2041ZM153.873 13.23C153.873 12.1591 153.657 11.2264 153.225 10.4319C152.793 9.63737 152.206 9.03285 151.464 8.61832C150.738 8.18652 149.935 7.97062 149.054 7.97062C148.173 7.97062 147.37 8.17789 146.645 8.59242C145.919 9.00694 145.341 9.61147 144.909 10.406C144.477 11.2005 144.261 12.1332 144.261 13.2041C144.261 14.2922 144.477 15.2422 144.909 16.0539C145.341 16.8485 145.919 17.4616 146.645 17.8934C147.37 18.3079 148.173 18.5152 149.054 18.5152C149.935 18.5152 150.738 18.3079 151.464 17.8934C152.206 17.4616 152.793 16.8485 153.225 16.0539C153.657 15.2422 153.873 14.3008 153.873 13.23Z" fill="#30D158"/>
<path d="M168.987 4.21395V10.2505H175.568V12.1936H168.987V18.4116H176.345V20.3547H166.63V2.27085H176.345V4.21395H168.987Z" fill="#30D158"/>
<path d="M192.608 12.7118C192.608 13.1609 192.582 13.6359 192.53 14.1367H181.182C181.268 15.5358 181.743 16.6326 182.607 17.4271C183.488 18.2043 184.55 18.5929 185.794 18.5929C186.813 18.5929 187.659 18.3598 188.333 17.8934C189.024 17.4098 189.507 16.7707 189.784 15.9762H192.323C191.943 17.3407 191.183 18.4548 190.043 19.3184C188.903 20.1647 187.486 20.5879 185.794 20.5879C184.447 20.5879 183.237 20.2856 182.167 19.6811C181.113 19.0765 180.284 18.2216 179.679 17.1162C179.075 15.9935 178.773 14.6981 178.773 13.23C178.773 11.7618 179.066 10.4751 179.654 9.36966C180.241 8.26425 181.061 7.41792 182.115 6.83067C183.186 6.22615 184.412 5.92388 185.794 5.92388C187.141 5.92388 188.333 6.21751 189.369 6.80476C190.405 7.39201 191.2 8.20379 191.753 9.24012C192.323 10.2592 192.608 11.4164 192.608 12.7118ZM190.172 12.2195C190.172 11.3214 189.974 10.5528 189.576 9.91373C189.179 9.25739 188.635 8.76514 187.944 8.43697C187.27 8.09153 186.519 7.91881 185.69 7.91881C184.498 7.91881 183.479 8.29879 182.633 9.05876C181.804 9.81873 181.329 10.8723 181.208 12.2195H190.172Z" fill="#30D158"/>
<path d="M212.316 2.29675V4.21395H204.466V10.3023H210.84V12.2195H204.466V20.3547H202.109V2.29675H212.316Z" fill="#30D158"/>
<path d="M220.682 8.10016H217.703V20.3547H215.345V8.10016H213.506V6.15706H215.345V5.14664C215.345 3.55761 215.751 2.40039 216.563 1.67496C217.392 0.932262 218.713 0.560913 220.527 0.560913V2.52993C219.49 2.52993 218.756 2.73719 218.325 3.15172C217.91 3.54898 217.703 4.21395 217.703 5.14664V6.15706H220.682V8.10016Z" fill="#30D158"/>
<path d="M243.5 7.53018C242.999 6.47659 242.273 5.6648 241.323 5.09483C240.373 4.50758 239.268 4.21395 238.007 4.21395C236.746 4.21395 235.606 4.50758 234.587 5.09483C233.585 5.6648 232.791 6.49386 232.204 7.582C231.634 8.65287 231.349 9.89646 231.349 11.3128C231.349 12.7291 231.634 13.9727 232.204 15.0435C232.791 16.1144 233.585 16.9435 234.587 17.5307C235.606 18.1007 236.746 18.3857 238.007 18.3857C239.769 18.3857 241.22 17.8589 242.36 16.8053C243.5 15.7517 244.164 14.3267 244.354 12.5304H237.152V10.6132H246.868V12.4268C246.729 13.9122 246.263 15.2767 245.469 16.5203C244.674 17.7466 243.629 18.7225 242.334 19.4479C241.038 20.1561 239.596 20.5101 238.007 20.5101C236.332 20.5101 234.803 20.1215 233.421 19.3443C232.04 18.5498 230.943 17.453 230.131 16.0539C229.336 14.6549 228.939 13.0745 228.939 11.3128C228.939 9.55101 229.336 7.97062 230.131 6.57159C230.943 5.15528 232.04 4.0585 233.421 3.28126C234.803 2.48675 236.332 2.08949 238.007 2.08949C239.924 2.08949 241.617 2.56447 243.085 3.51443C244.57 4.4644 245.65 5.80298 246.323 7.53018H243.5Z" fill="#30D158"/>
<path d="M255.581 5.92388C256.807 5.92388 257.878 6.1916 258.794 6.72703C259.726 7.26247 260.417 7.93608 260.866 8.74786V6.15706H263.25V20.6656C263.25 21.961 262.973 23.1096 262.421 24.1113C261.868 25.1304 261.073 25.9249 260.037 26.4949C259.018 27.0649 257.826 27.3499 256.462 27.3499C254.596 27.3499 253.042 26.9094 251.798 26.0285C250.555 25.1477 249.821 23.9473 249.596 22.4273H251.928C252.187 23.2909 252.722 23.9818 253.534 24.5C254.346 25.0354 255.322 25.3031 256.462 25.3031C257.757 25.3031 258.811 24.8972 259.623 24.0854C260.452 23.2737 260.866 22.1337 260.866 20.6656V17.6861C260.4 18.5152 259.709 19.2061 258.794 19.7588C257.878 20.3115 256.807 20.5879 255.581 20.5879C254.32 20.5879 253.172 20.277 252.135 19.6552C251.116 19.0334 250.313 18.1611 249.726 17.0384C249.139 15.9158 248.845 14.6376 248.845 13.2041C248.845 11.7532 249.139 10.4837 249.726 9.39557C250.313 8.29016 251.116 7.43519 252.135 6.83067C253.172 6.22615 254.32 5.92388 255.581 5.92388ZM260.866 13.23C260.866 12.1591 260.65 11.2264 260.219 10.4319C259.787 9.63737 259.199 9.03285 258.457 8.61832C257.731 8.18652 256.928 7.97062 256.047 7.97062C255.166 7.97062 254.363 8.17789 253.638 8.59242C252.912 9.00694 252.334 9.61147 251.902 10.406C251.47 11.2005 251.254 12.1332 251.254 13.2041C251.254 14.2922 251.47 15.2422 251.902 16.0539C252.334 16.8485 252.912 17.4616 253.638 17.8934C254.363 18.3079 255.166 18.5152 256.047 18.5152C256.928 18.5152 257.731 18.3079 258.457 17.8934C259.199 17.4616 259.787 16.8485 260.219 16.0539C260.65 15.2422 260.866 14.3008 260.866 13.23Z" fill="#30D158"/>
<path d="M287.536 2.29675V20.3547H285.178V12.1677H275.981V20.3547H273.623V2.29675H275.981V10.2246H285.178V2.29675H287.536Z" fill="#30D158"/>
<path d="M298.349 5.89798C299.42 5.89798 300.387 6.13115 301.251 6.59749C302.114 7.04657 302.788 7.72881 303.272 8.64423C303.773 9.55965 304.023 10.6737 304.023 11.9864V20.3547H301.691V12.3232C301.691 10.9069 301.337 9.82737 300.629 9.08467C299.921 8.3247 298.954 7.94471 297.727 7.94471C296.484 7.94471 295.491 8.33333 294.748 9.11058C294.022 9.88782 293.66 11.0191 293.66 12.5045V20.3547H291.302V1.18271H293.66V8.17789C294.126 7.45246 294.765 6.89112 295.577 6.49386C296.406 6.0966 297.33 5.89798 298.349 5.89798Z" fill="#30D158"/>
<path d="M316.621 2.29675V20.3547H314.263V2.29675H316.621Z" fill="#30D158"/>
<path d="M321.598 3.85124C321.149 3.85124 320.769 3.69579 320.458 3.38489C320.147 3.074 319.991 2.69401 319.991 2.24494C319.991 1.79586 320.147 1.41588 320.458 1.10498C320.769 0.794086 321.149 0.638638 321.598 0.638638C322.029 0.638638 322.392 0.794086 322.686 1.10498C322.997 1.41588 323.152 1.79586 323.152 2.24494C323.152 2.69401 322.997 3.074 322.686 3.38489C322.392 3.69579 322.029 3.85124 321.598 3.85124ZM322.738 6.15706V20.3547H320.38V6.15706H322.738Z" fill="#30D158"/>
<path d="M342.238 2.29675V15.6394C342.238 17.1248 341.781 18.3166 340.865 19.2147C339.95 20.0956 338.741 20.536 337.238 20.536C335.718 20.536 334.501 20.087 333.585 19.1888C332.67 18.2734 332.212 17.0298 332.212 15.4581H334.57C334.587 16.3389 334.811 17.0557 335.243 17.6084C335.692 18.1611 336.357 18.4375 337.238 18.4375C338.119 18.4375 338.775 18.1784 339.207 17.6602C339.639 17.1248 339.855 16.4512 339.855 15.6394V2.29675H342.238Z" fill="#30D158"/>
<path d="M347.893 3.85124C347.444 3.85124 347.064 3.69579 346.754 3.38489C346.46 3.074 346.313 2.69401 346.313 2.24494C346.313 1.79586 346.46 1.41588 346.754 1.10498C347.064 0.794086 347.444 0.638638 347.893 0.638638C348.343 0.638638 348.714 0.794086 349.008 1.10498C349.318 1.41588 349.474 1.79586 349.474 2.24494C349.474 2.69401 349.318 3.074 349.008 3.38489C348.714 3.69579 348.343 3.85124 347.893 3.85124ZM349.059 23.4377C349.059 24.6986 348.74 25.6227 348.101 26.2099C347.462 26.7972 346.529 27.0908 345.303 27.0908H343.93V25.0959H344.914C345.57 25.0959 346.028 24.9663 346.287 24.7072C346.564 24.4482 346.702 24.0077 346.702 23.3859V6.15706H349.059V23.4377Z" fill="#30D158"/>
<path d="M369.233 20.3547L361.797 12.1159V20.3547H359.439V2.29675H361.797V10.6651L369.259 2.29675H372.238L364.051 11.3387L372.316 20.3547H369.233Z" fill="#30D158"/>
<path d="M382.618 20.3547L377.047 14.0849V20.3547H374.69V1.18271H377.047V12.4527L382.514 6.15706H385.804L379.12 13.23L385.83 20.3547H382.618Z" fill="#30D158"/>
<path d="M4.52873 52.8825H10.8503V54.7997H2.17109V36.7417H4.52873V52.8825Z" fill="#30D158"/>
<path d="M15.4526 35.6277V54.7997H13.095V35.6277H15.4526Z" fill="#30D158"/>
<path d="M44.1768 36.8713V54.7997H41.8191V41.4311L35.8603 54.7997H34.2022L28.2174 41.4052V54.7997H25.8598V36.8713H28.3988L35.0312 51.6907L41.6637 36.8713H44.1768Z" fill="#30D158"/>
<path d="M64.9895 40.343C66.0949 40.343 67.0794 40.5761 67.943 41.0425C68.8066 41.4916 69.4888 42.1738 69.9897 43.0892C70.4906 44.0046 70.7411 45.1187 70.7411 46.4314V54.7997H68.4093V46.7682C68.4093 45.3519 68.0553 44.2724 67.3471 43.5297C66.6562 42.7697 65.7149 42.3897 64.5231 42.3897C63.2968 42.3897 62.3209 42.787 61.5955 43.5815C60.8701 44.3587 60.5074 45.49 60.5074 46.9754V54.7997H58.1756V46.7682C58.1756 45.3519 57.8216 44.2724 57.1134 43.5297C56.4225 42.7697 55.4812 42.3897 54.2894 42.3897C53.0631 42.3897 52.0872 42.787 51.3618 43.5815C50.6364 44.3587 50.2737 45.49 50.2737 46.9754V54.7997H47.916V40.602H50.2737V42.6488C50.74 41.9061 51.3618 41.3361 52.1391 40.9389C52.9336 40.5416 53.8058 40.343 54.7558 40.343C55.9475 40.343 57.0011 40.6107 57.9166 41.1461C58.832 41.6816 59.5142 42.4674 59.9633 43.5038C60.3606 42.502 61.0169 41.7247 61.9323 41.172C62.8477 40.6193 63.8668 40.343 64.9895 40.343Z" fill="#30D158"/>
<path d="M95.195 54.7997H92.8374L83.3551 40.4207V54.7997H80.9974V36.7158H83.3551L92.8374 51.0689V36.7158H95.195V54.7997Z" fill="#30D158"/>
<path d="M105.872 40.343C107.6 40.343 108.999 40.8698 110.07 41.9234C111.14 42.9597 111.676 44.4624 111.676 46.4314V54.7997H109.344V46.7682C109.344 45.3519 108.99 44.2724 108.282 43.5297C107.574 42.7697 106.606 42.3897 105.38 42.3897C104.137 42.3897 103.143 42.7783 102.401 43.5556C101.675 44.3328 101.313 45.4641 101.313 46.9495V54.7997H98.9549V40.602H101.313V42.6229C101.779 41.8975 102.409 41.3361 103.204 40.9389C104.016 40.5416 104.905 40.343 105.872 40.343Z" fill="#30D158"/>
<path d="M130.103 54.981C128.428 54.981 126.899 54.5924 125.517 53.8152C124.135 53.0206 123.039 51.9239 122.227 50.5248C121.432 49.1085 121.035 47.5195 121.035 45.7578C121.035 43.996 121.432 42.4156 122.227 41.0166C123.039 39.6003 124.135 38.5035 125.517 37.7263C126.899 36.9317 128.428 36.5345 130.103 36.5345C131.796 36.5345 133.333 36.9317 134.715 37.7263C136.096 38.5035 137.184 39.5916 137.979 40.9907C138.773 42.3897 139.171 43.9787 139.171 45.7578C139.171 47.5368 138.773 49.1258 137.979 50.5248C137.184 51.9239 136.096 53.0206 134.715 53.8152C133.333 54.5924 131.796 54.981 130.103 54.981ZM130.103 52.9343C131.364 52.9343 132.495 52.6407 133.497 52.0534C134.516 51.4662 135.31 50.6285 135.88 49.5403C136.468 48.4522 136.761 47.1913 136.761 45.7578C136.761 44.3069 136.468 43.046 135.88 41.9752C135.31 40.887 134.525 40.0493 133.523 39.4621C132.521 38.8748 131.381 38.5812 130.103 38.5812C128.825 38.5812 127.685 38.8748 126.683 39.4621C125.681 40.0493 124.887 40.887 124.3 41.9752C123.73 43.046 123.445 44.3069 123.445 45.7578C123.445 47.1913 123.73 48.4522 124.3 49.5403C124.887 50.6285 125.681 51.4662 126.683 52.0534C127.702 52.6407 128.842 52.9343 130.103 52.9343Z" fill="#30D158"/>
<path d="M148.216 55.0328C146.886 55.0328 145.677 54.7306 144.589 54.1261C143.518 53.5215 142.672 52.6666 142.05 51.5612C141.445 50.4385 141.143 49.1431 141.143 47.675C141.143 46.2241 141.454 44.946 142.076 43.8406C142.715 42.7179 143.579 41.8629 144.667 41.2757C145.755 40.6711 146.973 40.3689 148.32 40.3689C149.667 40.3689 150.885 40.6711 151.973 41.2757C153.061 41.8629 153.916 42.7092 154.538 43.8146C155.177 44.9201 155.496 46.2068 155.496 47.675C155.496 49.1431 155.168 50.4385 154.512 51.5612C153.873 52.6666 153 53.5215 151.895 54.1261C150.79 54.7306 149.563 55.0328 148.216 55.0328ZM148.216 52.9602C149.062 52.9602 149.857 52.7616 150.6 52.3643C151.342 51.9671 151.938 51.3712 152.387 50.5767C152.854 49.7821 153.087 48.8149 153.087 47.675C153.087 46.535 152.862 45.5678 152.413 44.7732C151.964 43.9787 151.377 43.3915 150.651 43.0115C149.926 42.6142 149.14 42.4156 148.294 42.4156C147.43 42.4156 146.636 42.6142 145.91 43.0115C145.202 43.3915 144.632 43.9787 144.2 44.7732C143.769 45.5678 143.553 46.535 143.553 47.675C143.553 48.8322 143.76 49.808 144.174 50.6026C144.606 51.3971 145.176 51.993 145.884 52.3902C146.593 52.7702 147.37 52.9602 148.216 52.9602Z" fill="#30D158"/>
<path d="M177.058 42.027C177.058 43.5297 176.54 44.7819 175.504 45.7837C174.485 46.7682 172.922 47.2604 170.814 47.2604H167.343V54.7997H164.985V36.7417H170.814C172.853 36.7417 174.398 37.234 175.452 38.2185C176.523 39.203 177.058 40.4725 177.058 42.027ZM170.814 45.3173C172.127 45.3173 173.094 45.0323 173.716 44.4623C174.338 43.8924 174.649 43.0806 174.649 42.027C174.649 39.7989 173.371 38.6848 170.814 38.6848H167.343V45.3173H170.814Z" fill="#30D158"/>
<path d="M182.087 43.2188C182.553 42.407 183.244 41.7334 184.16 41.1979C185.092 40.6452 186.172 40.3689 187.398 40.3689C188.659 40.3689 189.799 40.6711 190.818 41.2757C191.854 41.8802 192.666 42.7351 193.253 43.8406C193.841 44.9287 194.134 46.1982 194.134 47.649C194.134 49.0826 193.841 50.3608 193.253 51.4834C192.666 52.6061 191.854 53.4784 190.818 54.1002C189.799 54.7219 188.659 55.0328 187.398 55.0328C186.189 55.0328 185.118 54.7651 184.186 54.2297C183.27 53.677 182.571 52.9947 182.087 52.183V61.5358H179.729V40.602H182.087V43.2188ZM191.725 47.649C191.725 46.5782 191.509 45.6455 191.077 44.851C190.645 44.0565 190.058 43.4519 189.315 43.0374C188.59 42.6229 187.787 42.4156 186.906 42.4156C186.042 42.4156 185.239 42.6315 184.497 43.0633C183.771 43.4778 183.184 44.091 182.735 44.9028C182.303 45.6973 182.087 46.6214 182.087 47.675C182.087 48.7458 182.303 49.6871 182.735 50.4989C183.184 51.2934 183.771 51.9066 184.497 52.3384C185.239 52.7529 186.042 52.9602 186.906 52.9602C187.787 52.9602 188.59 52.7529 189.315 52.3384C190.058 51.9066 190.645 51.2934 191.077 50.4989C191.509 49.6871 191.725 48.7372 191.725 47.649Z" fill="#30D158"/>
<path d="M218.109 58.2195L214.508 54.6183C213.627 54.8601 212.729 54.981 211.814 54.981C210.138 54.981 208.61 54.5924 207.228 53.8152C205.846 53.0206 204.749 51.9239 203.937 50.5248C203.143 49.1085 202.746 47.5195 202.746 45.7578C202.746 43.996 203.143 42.4156 203.937 41.0166C204.749 39.6003 205.846 38.5035 207.228 37.7263C208.61 36.9317 210.138 36.5345 211.814 36.5345C213.506 36.5345 215.043 36.9317 216.425 37.7263C217.807 38.5035 218.895 39.5916 219.69 40.9907C220.484 42.3897 220.881 43.9787 220.881 45.7578C220.881 47.485 220.501 49.0394 219.741 50.4212C218.981 51.803 217.936 52.8911 216.607 53.6856L221.166 58.2195H218.109ZM205.155 45.7578C205.155 47.1913 205.44 48.4522 206.01 49.5403C206.597 50.6285 207.392 51.4662 208.394 52.0534C209.413 52.6407 210.553 52.9343 211.814 52.9343C213.074 52.9343 214.206 52.6407 215.207 52.0534C216.227 51.4662 217.021 50.6285 217.591 49.5403C218.178 48.4522 218.472 47.1913 218.472 45.7578C218.472 44.3069 218.178 43.046 217.591 41.9752C217.021 40.887 216.235 40.0493 215.233 39.4621C214.232 38.8748 213.092 38.5812 211.814 38.5812C210.535 38.5812 209.395 38.8748 208.394 39.4621C207.392 40.0493 206.597 40.887 206.01 41.9752C205.44 43.046 205.155 44.3069 205.155 45.7578Z" fill="#30D158"/>
<path d="M222.904 47.649C222.904 46.1982 223.198 44.9287 223.785 43.8406C224.373 42.7351 225.176 41.8802 226.195 41.2757C227.231 40.6711 228.388 40.3689 229.666 40.3689C230.893 40.3689 231.964 40.6452 232.879 41.1979C233.812 41.7334 234.494 42.3983 234.926 43.1929V40.602H237.309V61.5358H234.926V52.183C234.477 52.9775 233.786 53.6511 232.853 54.2038C231.92 54.7565 230.832 55.0328 229.589 55.0328C228.345 55.0328 227.214 54.7219 226.195 54.1002C225.176 53.4784 224.373 52.6061 223.785 51.4834C223.198 50.3608 222.904 49.0826 222.904 47.649ZM234.926 47.675C234.926 46.6041 234.71 45.6714 234.278 44.8769C233.846 44.0824 233.259 43.4778 232.516 43.0633C231.791 42.6315 230.988 42.4156 230.107 42.4156C229.226 42.4156 228.423 42.6229 227.697 43.0374C226.972 43.4519 226.393 44.0565 225.962 44.851C225.53 45.6455 225.314 46.5782 225.314 47.649C225.314 48.7372 225.53 49.6871 225.962 50.4989C226.393 51.2934 226.972 51.9066 227.697 52.3384C228.423 52.7529 229.226 52.9602 230.107 52.9602C230.988 52.9602 231.791 52.7529 232.516 52.3384C233.259 51.9066 233.846 51.2934 234.278 50.4989C234.71 49.6871 234.926 48.7458 234.926 47.675Z" fill="#30D158"/>
<path d="M257.191 54.7997L252.89 47.4159H250.04V54.7997H247.682V36.7417H253.512C254.876 36.7417 256.025 36.9749 256.958 37.4413C257.908 37.9076 258.616 38.538 259.082 39.3326C259.548 40.1271 259.782 41.0338 259.782 42.0529C259.782 43.2965 259.419 44.3933 258.693 45.3432C257.985 46.2932 256.914 46.9236 255.481 47.2345L260.015 54.7997H257.191ZM250.04 45.5246H253.512C254.79 45.5246 255.749 45.2137 256.388 44.5919C257.027 43.9528 257.346 43.1065 257.346 42.0529C257.346 40.982 257.027 40.153 256.388 39.5657C255.766 38.9785 254.807 38.6848 253.512 38.6848H250.04V45.5246Z" fill="#30D158"/>
<path d="M265.543 42.9079C265.958 42.0961 266.545 41.4657 267.305 41.0166C268.082 40.5675 269.024 40.343 270.129 40.343V42.7783H269.507C266.865 42.7783 265.543 44.2119 265.543 47.0791V54.7997H263.186V40.602H265.543V42.9079Z" fill="#30D158"/>
<path d="M284.965 54.981C283.774 54.981 282.703 54.7738 281.753 54.3592C280.82 53.9274 280.086 53.3402 279.551 52.5975C279.015 51.8375 278.739 50.9653 278.722 49.9808H281.235C281.321 50.8271 281.666 51.5439 282.271 52.1311C282.893 52.7011 283.791 52.9861 284.965 52.9861C286.088 52.9861 286.969 52.7098 287.608 52.157C288.264 51.5871 288.593 50.8616 288.593 49.9808C288.593 49.2899 288.403 48.7285 288.023 48.2967C287.643 47.8649 287.168 47.5368 286.598 47.3122C286.028 47.0877 285.259 46.8459 284.292 46.5868C283.1 46.2759 282.141 45.965 281.416 45.6541C280.708 45.3432 280.095 44.8596 279.577 44.2033C279.076 43.5297 278.825 42.6315 278.825 41.5088C278.825 40.5243 279.076 39.6521 279.577 38.8921C280.077 38.1321 280.777 37.5449 281.675 37.1304C282.59 36.7158 283.635 36.5086 284.81 36.5086C286.503 36.5086 287.884 36.9317 288.955 37.7781C290.043 38.6244 290.657 39.7471 290.795 41.1461H288.204C288.118 40.4552 287.755 39.8507 287.116 39.3326C286.477 38.7971 285.63 38.5294 284.577 38.5294C283.592 38.5294 282.789 38.7885 282.167 39.3066C281.546 39.8075 281.235 40.5157 281.235 41.4311C281.235 42.0874 281.416 42.6229 281.779 43.0374C282.159 43.4519 282.616 43.7715 283.152 43.996C283.705 44.2033 284.473 44.4451 285.458 44.7214C286.649 45.0496 287.608 45.3778 288.333 45.7059C289.059 46.0168 289.681 46.5091 290.199 47.1827C290.717 47.839 290.976 48.7372 290.976 49.8771C290.976 50.758 290.743 51.5871 290.277 52.3643C289.81 53.1416 289.119 53.772 288.204 54.2556C287.288 54.7392 286.209 54.981 284.965 54.981Z" fill="#30D158"/>
<path d="M299.213 55.0328C298.124 55.0328 297.149 54.8515 296.285 54.4888C295.421 54.1088 294.739 53.5906 294.238 52.9343C293.737 52.2607 293.461 51.4921 293.409 50.6285H295.845C295.914 51.3366 296.242 51.9152 296.829 52.3643C297.434 52.8134 298.219 53.0379 299.187 53.0379C300.085 53.0379 300.793 52.8393 301.311 52.442C301.829 52.0448 302.088 51.5439 302.088 50.9394C302.088 50.3176 301.812 49.8599 301.259 49.5662C300.707 49.2553 299.852 48.9531 298.694 48.6595C297.641 48.3831 296.777 48.1068 296.104 47.8304C295.447 47.5368 294.877 47.1136 294.394 46.5609C293.927 45.9909 293.694 45.2482 293.694 44.3328C293.694 43.6074 293.91 42.9424 294.342 42.3379C294.774 41.7334 295.387 41.2584 296.181 40.9129C296.976 40.5502 297.883 40.3689 298.902 40.3689C300.473 40.3689 301.743 40.7661 302.71 41.5606C303.677 42.3552 304.196 43.4433 304.265 44.8251H301.907C301.855 44.0824 301.553 43.4865 301 43.0374C300.465 42.5883 299.739 42.3638 298.824 42.3638C297.978 42.3638 297.304 42.5452 296.803 42.9079C296.302 43.2706 296.052 43.7456 296.052 44.3328C296.052 44.7992 296.199 45.1878 296.492 45.4987C296.803 45.7923 297.183 46.0341 297.632 46.2241C298.099 46.3968 298.738 46.5955 299.549 46.82C300.568 47.0963 301.398 47.3727 302.037 47.649C302.676 47.9081 303.22 48.3054 303.669 48.8408C304.135 49.3763 304.377 50.0758 304.394 50.9394C304.394 51.7166 304.178 52.4161 303.746 53.0379C303.315 53.6597 302.702 54.152 301.907 54.5147C301.13 54.8601 300.232 55.0328 299.213 55.0328Z" fill="#30D158"/>
<path d="M325.226 36.7417V38.6589H320.303V54.7997H317.946V38.6589H312.997V36.7417H325.226Z" fill="#30D158"/>
<path d="M330.745 42.5452V50.9135C330.745 51.6043 330.892 52.0966 331.185 52.3902C331.479 52.6666 331.988 52.8047 332.714 52.8047H334.45V54.7997H332.325C331.012 54.7997 330.028 54.4974 329.372 53.8929C328.715 53.2884 328.387 52.2952 328.387 50.9135V42.5452H326.548V40.602H328.387V37.0267H330.745V40.602H334.45V42.5452H330.745Z" fill="#30D158"/>
<path d="M346.001 36.7417V48.1672C346.001 49.7735 346.39 50.9653 347.167 51.7425C347.961 52.5198 349.058 52.9084 350.457 52.9084C351.839 52.9084 352.918 52.5198 353.696 51.7425C354.49 50.9653 354.887 49.7735 354.887 48.1672V36.7417H357.245V48.1413C357.245 49.644 356.943 50.9135 356.338 51.9498C355.734 52.9688 354.913 53.7288 353.877 54.2297C352.858 54.7306 351.709 54.981 350.431 54.981C349.153 54.981 347.996 54.7306 346.96 54.2297C345.941 53.7288 345.129 52.9688 344.524 51.9498C343.937 50.9135 343.643 49.644 343.643 48.1413V36.7417H346.001Z" fill="#30D158"/>
<path d="M373.51 40.602V54.7997H371.153V52.7011C370.704 53.4265 370.073 53.9965 369.261 54.411C368.467 54.8083 367.586 55.0069 366.619 55.0069C365.513 55.0069 364.52 54.7824 363.639 54.3333C362.758 53.867 362.059 53.1761 361.541 52.2607C361.04 51.3453 360.789 50.2312 360.789 48.9185V40.602H363.121V48.6076C363.121 50.0067 363.475 51.0862 364.183 51.8462C364.892 52.5889 365.859 52.9602 367.085 52.9602C368.346 52.9602 369.339 52.5716 370.064 51.7943C370.79 51.0171 371.153 49.8858 371.153 48.4004V40.602H373.51Z" fill="#30D158"/>
<path d="M17.0941 71.1867L10.2803 89.2447H7.55997L0.746148 71.1867H3.25923L8.9331 86.7575L14.607 71.1867H17.0941Z" fill="#30D158"/>
<path d="M24.7054 87.0684L29.1098 75.047H31.6229L26.0527 89.2447H23.3064L17.7362 75.047H20.2752L24.7054 87.0684Z" fill="#30D158"/>
<path d="M63.0273 71.1867L57.7939 89.2447H55.1513L50.9542 74.7102L46.6016 89.2447L43.9849 89.2706L38.9328 71.1867H41.4459L45.3839 86.4984L49.7365 71.1867H52.3791L56.5244 86.4466L60.4883 71.1867H63.0273Z" fill="#30D158"/>
<path d="M84.2612 75.047L79.8309 89.2447H77.3956L73.9757 77.9747L70.5559 89.2447H68.1205L63.6643 75.047H66.0738L69.3382 86.9647L72.8617 75.047H75.2711L78.7169 86.9907L81.9295 75.047H84.2612Z" fill="#30D158"/>
<path d="M100.374 80.2287L105.918 89.2447H103.25L98.923 82.1977L94.8036 89.2447H92.1869L97.7053 80.2287L92.161 71.1867H94.8036L99.1561 78.2596L103.301 71.1867H105.944L100.374 80.2287Z" fill="#30D158"/>
<path d="M116.232 89.2447L112.864 83.9594L109.625 89.2447H107.164L111.75 82.1977L107.164 75.047H109.833L113.201 80.3064L116.413 75.047H118.875L114.315 82.0681L118.901 89.2447H116.232Z" fill="#30D158"/>
<path d="M140.252 71.1867L134.371 82.4308V89.2447H132.013V82.4308L126.106 71.1867H128.723L133.179 80.3323L137.635 71.1867H140.252Z" fill="#30D158"/>
<path d="M154.708 75.047L146.158 95.9289H143.723L146.521 89.0892L140.795 75.047H143.412L147.868 86.5502L152.273 75.047H154.708Z" fill="#30D158"/>
<path d="M165.462 87.1979H174.271V89.2447H162.664V87.3793L171.421 73.2335H162.768V71.1867H174.219V73.0521L165.462 87.1979Z" fill="#30D158"/>
<path d="M178.986 87.3016H185.956V89.2447H176.292V87.3016L183.184 76.9642H176.344V75.047H185.904V76.9642L178.986 87.3016Z" fill="#30D158"/>
<path d="M195.015 79.6846C195.015 76.7138 195.499 74.3993 196.466 72.7412C197.433 71.0658 199.126 70.2281 201.544 70.2281C203.945 70.2281 205.629 71.0658 206.596 72.7412C207.563 74.3993 208.047 76.7138 208.047 79.6846C208.047 82.7072 207.563 85.0562 206.596 86.7316C205.629 88.407 203.945 89.2447 201.544 89.2447C199.126 89.2447 197.433 88.407 196.466 86.7316C195.499 85.0562 195.015 82.7072 195.015 79.6846ZM205.715 79.6846C205.715 78.1819 205.612 76.9124 205.404 75.8761C205.214 74.8225 204.808 73.9762 204.187 73.3371C203.582 72.698 202.701 72.3785 201.544 72.3785C200.37 72.3785 199.471 72.698 198.85 73.3371C198.245 73.9762 197.839 74.8225 197.632 75.8761C197.442 76.9124 197.347 78.1819 197.347 79.6846C197.347 81.2391 197.442 82.5431 197.632 83.5967C197.839 84.6503 198.245 85.4966 198.85 86.1357C199.471 86.7748 200.37 87.0943 201.544 87.0943C202.701 87.0943 203.582 86.7748 204.187 86.1357C204.808 85.4966 205.214 84.6503 205.404 83.5967C205.612 82.5431 205.715 81.2391 205.715 79.6846Z" fill="#30D158"/>
<path d="M210.403 72.6635V70.5131H215.273V89.2447H212.89V72.6635H210.403Z" fill="#30D158"/>
<path d="M218.779 87.3534C220.973 85.5916 222.691 84.1494 223.935 83.0267C225.178 81.8868 226.223 80.7036 227.07 79.4773C227.933 78.2337 228.365 77.0161 228.365 75.8243C228.365 74.7016 228.089 73.8207 227.536 73.1817C227.001 72.5253 226.128 72.1972 224.919 72.1972C223.745 72.1972 222.829 72.5685 222.173 73.3112C221.534 74.0366 221.189 75.0125 221.137 76.2388H218.857C218.926 74.3043 219.513 72.8103 220.619 71.7567C221.724 70.7031 223.149 70.1763 224.893 70.1763C226.672 70.1763 228.08 70.6686 229.116 71.6531C230.17 72.6376 230.697 73.9934 230.697 75.7207C230.697 77.1542 230.265 78.5533 229.401 79.9178C228.555 81.265 227.588 82.4567 226.5 83.4931C225.412 84.5121 224.021 85.7039 222.329 87.0684H231.241V89.0374H218.779V87.3534Z" fill="#30D158"/>
<path d="M233.655 75.2284C233.776 73.6394 234.39 72.3958 235.495 71.4976C236.6 70.5995 238.034 70.1504 239.796 70.1504C240.97 70.1504 241.981 70.3663 242.827 70.7981C243.691 71.2126 244.338 71.7826 244.77 72.508C245.219 73.2335 245.444 74.0539 245.444 74.9693C245.444 76.0402 245.133 76.9642 244.511 77.7415C243.906 78.5187 243.112 79.0196 242.127 79.2441V79.3737C243.25 79.65 244.14 80.1941 244.796 81.0059C245.452 81.8177 245.78 82.8799 245.78 84.1926C245.78 85.1771 245.556 86.0666 245.107 86.8611C244.658 87.6384 243.984 88.2515 243.086 88.7006C242.188 89.1497 241.108 89.3742 239.847 89.3742C238.017 89.3742 236.514 88.8992 235.339 87.9493C234.165 86.982 233.509 85.6175 233.37 83.8558H235.65C235.771 84.8921 236.194 85.7384 236.92 86.3948C237.645 87.0511 238.613 87.3793 239.822 87.3793C241.031 87.3793 241.946 87.0684 242.568 86.4466C243.207 85.8075 243.526 84.9871 243.526 83.9853C243.526 82.6899 243.095 81.7572 242.231 81.1872C241.367 80.6173 240.063 80.3323 238.319 80.3323H237.723V78.3633H238.345C239.934 78.346 241.134 78.0869 241.946 77.586C242.758 77.0679 243.164 76.2734 243.164 75.2025C243.164 74.2871 242.861 73.553 242.257 73.0003C241.67 72.4476 240.823 72.1712 239.718 72.1712C238.647 72.1712 237.783 72.4476 237.127 73.0003C236.471 73.553 236.082 74.2957 235.961 75.2284H233.655Z" fill="#30D158"/>
<path d="M248.135 85.0735V83.2858L257.228 70.6945H260.052V83.0267H262.643V85.0735H260.052V89.2447H257.721V85.0735H248.135ZM257.824 73.1557L250.855 83.0267H257.824V73.1557Z" fill="#30D158"/>
<path d="M276.683 72.5599H267.589V78.4669C267.986 77.9142 268.574 77.4651 269.351 77.1197C270.128 76.757 270.966 76.5756 271.864 76.5756C273.298 76.5756 274.463 76.8779 275.362 77.4824C276.26 78.0697 276.899 78.8383 277.279 79.7882C277.676 80.7209 277.875 81.714 277.875 82.7676C277.875 84.0112 277.641 85.1253 277.175 86.1098C276.709 87.0943 275.992 87.8715 275.025 88.4415C274.075 89.0115 272.892 89.2965 271.475 89.2965C269.662 89.2965 268.194 88.8301 267.071 87.8974C265.948 86.9648 265.266 85.7212 265.024 84.1667H267.33C267.555 85.1512 268.03 85.9198 268.755 86.4725C269.48 87.0252 270.396 87.3016 271.501 87.3016C272.866 87.3016 273.893 86.8957 274.584 86.0839C275.275 85.2548 275.621 84.1667 275.621 82.8195C275.621 81.4722 275.275 80.4359 274.584 79.7105C273.893 78.9678 272.874 78.5964 271.527 78.5964C270.612 78.5964 269.809 78.821 269.118 79.2701C268.444 79.7019 267.952 80.2977 267.641 81.0577H265.413V70.4872H276.683V72.5599Z" fill="#30D158"/>
<path d="M291.19 74.9693C290.81 73.0521 289.626 72.0935 287.64 72.0935C286.103 72.0935 284.954 72.6894 284.194 73.8812C283.434 75.0557 283.063 76.9988 283.08 79.7105C283.478 78.8123 284.134 78.1128 285.049 77.6119C285.982 77.0938 287.018 76.8347 288.158 76.8347C289.937 76.8347 291.354 77.3874 292.407 78.4928C293.478 79.5982 294.014 81.1268 294.014 83.0785C294.014 84.253 293.78 85.3066 293.314 86.2393C292.865 87.172 292.174 87.9147 291.241 88.4674C290.326 89.0201 289.212 89.2965 287.899 89.2965C286.12 89.2965 284.73 88.8992 283.728 88.1047C282.726 87.3102 282.027 86.2134 281.63 84.8144C281.232 83.4153 281.034 81.6881 281.034 79.6328C281.034 73.2939 283.244 70.1245 287.666 70.1245C289.359 70.1245 290.689 70.5822 291.656 71.4976C292.623 72.4131 293.193 73.5703 293.366 74.9693H291.19ZM287.666 78.8296C286.923 78.8296 286.224 78.9851 285.568 79.296C284.911 79.5896 284.376 80.0473 283.961 80.6691C283.564 81.2736 283.365 82.0163 283.365 82.8972C283.365 84.2099 283.745 85.2807 284.505 86.1098C285.265 86.9216 286.353 87.3275 287.77 87.3275C288.979 87.3275 289.937 86.9561 290.646 86.2134C291.371 85.4534 291.734 84.4344 291.734 83.1563C291.734 81.809 291.388 80.7554 290.697 79.9955C290.006 79.2182 288.996 78.8296 287.666 78.8296Z" fill="#30D158"/>
<path d="M308.464 72.3526L301.262 89.2447H298.878L306.184 72.5858H296.184V70.5649H308.464V72.3526Z" fill="#30D158"/>
<path d="M314.239 79.5032C313.272 79.1232 312.529 78.5705 312.011 77.8451C311.493 77.1197 311.234 76.2388 311.234 75.2025C311.234 74.2698 311.467 73.4321 311.933 72.6894C312.4 71.9294 313.09 71.3335 314.006 70.9017C314.939 70.4527 316.061 70.2281 317.374 70.2281C318.687 70.2281 319.801 70.4527 320.716 70.9017C321.649 71.3335 322.348 71.9294 322.815 72.6894C323.298 73.4321 323.54 74.2698 323.54 75.2025C323.54 76.2043 323.272 77.0851 322.737 77.8451C322.202 78.5878 321.467 79.1405 320.535 79.5032C321.606 79.8314 322.452 80.41 323.074 81.2391C323.713 82.0509 324.032 83.0354 324.032 84.1926C324.032 85.3153 323.756 86.2998 323.203 87.1461C322.651 87.9752 321.865 88.6229 320.846 89.0892C319.844 89.5383 318.687 89.7628 317.374 89.7628C316.061 89.7628 314.904 89.5383 313.902 89.0892C312.918 88.6229 312.149 87.9752 311.596 87.1461C311.044 86.2998 310.767 85.3153 310.767 84.1926C310.767 83.0354 311.078 82.0422 311.7 81.2132C312.322 80.3841 313.168 79.8141 314.239 79.5032ZM321.26 75.4875C321.26 74.4339 320.915 73.6221 320.224 73.0521C319.533 72.4821 318.583 72.1972 317.374 72.1972C316.182 72.1972 315.241 72.4821 314.55 73.0521C313.859 73.6221 313.514 74.4425 313.514 75.5134C313.514 76.4806 313.868 77.2579 314.576 77.8451C315.301 78.4324 316.234 78.726 317.374 78.726C318.531 78.726 319.464 78.4324 320.172 77.8451C320.897 77.2406 321.26 76.4547 321.26 75.4875ZM317.374 80.5396C316.096 80.5396 315.051 80.8418 314.239 81.4463C313.427 82.0336 313.021 82.9231 313.021 84.1149C313.021 85.2203 313.41 86.1098 314.187 86.7834C314.982 87.457 316.044 87.7938 317.374 87.7938C318.704 87.7938 319.757 87.457 320.535 86.7834C321.312 86.1098 321.701 85.2203 321.701 84.1149C321.701 82.9576 321.303 82.0768 320.509 81.4722C319.714 80.8504 318.669 80.5396 317.374 80.5396Z" fill="#30D158"/>
<path d="M329.936 84.2185C330.108 85.203 330.506 85.963 331.127 86.4984C331.767 87.0338 332.622 87.3016 333.692 87.3016C335.126 87.3016 336.18 86.7402 336.853 85.6175C337.544 84.4948 337.872 82.6036 337.838 79.9437C337.475 80.7209 336.87 81.3341 336.024 81.7831C335.178 82.2149 334.236 82.4308 333.2 82.4308C332.043 82.4308 331.007 82.1977 330.091 81.7313C329.193 81.2477 328.485 80.5482 327.967 79.6328C327.449 78.7173 327.189 77.6119 327.189 76.3165C327.189 74.4684 327.725 72.983 328.796 71.8603C329.867 70.7204 331.387 70.1504 333.356 70.1504C335.774 70.1504 337.466 70.9363 338.434 72.508C339.418 74.0798 339.91 76.4202 339.91 79.5291C339.91 81.7054 339.712 83.5017 339.314 84.918C338.934 86.3343 338.278 87.4138 337.345 88.1565C336.43 88.8992 335.169 89.2706 333.563 89.2706C331.801 89.2706 330.428 88.7956 329.443 87.8456C328.459 86.8957 327.898 85.6866 327.759 84.2185H329.936ZM333.589 80.4359C334.746 80.4359 335.696 80.0818 336.439 79.3737C337.181 78.6483 337.553 77.6724 337.553 76.4461C337.553 75.1507 337.19 74.1057 336.465 73.3112C335.739 72.5167 334.72 72.1194 333.407 72.1194C332.198 72.1194 331.231 72.4994 330.506 73.2594C329.798 74.0194 329.443 75.0211 329.443 76.2647C329.443 77.5256 329.798 78.536 330.506 79.296C331.214 80.0559 332.242 80.4359 333.589 80.4359Z" fill="#30D158"/>
<path d="M13.1043 124.929H6.3164L5.22826 128.141H0.590719L7.17137 109.954H12.3012L18.8818 128.141H14.1925L13.1043 124.929ZM11.9644 121.509L9.71036 114.851L7.48227 121.509H11.9644Z" fill="#30D158"/>
<path d="M19.7447 120.887C19.7447 119.402 20.021 118.098 20.5737 116.975C21.1437 115.852 21.9123 114.989 22.8796 114.384C23.8468 113.78 24.9263 113.477 26.1181 113.477C27.1371 113.477 28.0266 113.685 28.7866 114.099C29.5638 114.514 30.1597 115.058 30.5743 115.731V113.685H35.0045V128.141H30.5743V126.095C30.1425 126.768 29.5379 127.312 28.7607 127.727C28.0007 128.141 27.1112 128.349 26.0922 128.349C24.9177 128.349 23.8468 128.046 22.8796 127.442C21.9123 126.82 21.1437 125.948 20.5737 124.825C20.021 123.685 19.7447 122.373 19.7447 120.887ZM30.5743 120.913C30.5743 119.808 30.2634 118.935 29.6416 118.296C29.037 117.657 28.2943 117.338 27.4135 117.338C26.5326 117.338 25.7813 117.657 25.1595 118.296C24.5549 118.918 24.2527 119.782 24.2527 120.887C24.2527 121.993 24.5549 122.873 25.1595 123.53C25.7813 124.169 26.5326 124.488 27.4135 124.488C28.2943 124.488 29.037 124.169 29.6416 123.53C30.2634 122.891 30.5743 122.019 30.5743 120.913Z" fill="#30D158"/>
<path d="M54.1927 118.815C55.2463 119.039 56.0926 119.566 56.7317 120.395C57.3708 121.207 57.6903 122.139 57.6903 123.193C57.6903 124.713 57.1549 125.922 56.084 126.82C55.0304 127.701 53.5536 128.141 51.6537 128.141H43.1818V109.954H51.3687C53.2168 109.954 54.659 110.377 55.6954 111.223C56.749 112.07 57.2758 113.218 57.2758 114.669C57.2758 115.74 56.9908 116.63 56.4208 117.338C55.8681 118.046 55.1254 118.538 54.1927 118.815ZM47.612 117.312H50.5137C51.2392 117.312 51.7919 117.156 52.1719 116.846C52.5691 116.517 52.7678 116.042 52.7678 115.421C52.7678 114.799 52.5691 114.324 52.1719 113.996C51.7919 113.667 51.2392 113.503 50.5137 113.503H47.612V117.312ZM50.8765 124.566C51.6192 124.566 52.1891 124.402 52.5864 124.074C53.0009 123.728 53.2082 123.236 53.2082 122.597C53.2082 121.958 52.9923 121.457 52.5605 121.094C52.146 120.732 51.5673 120.55 50.8246 120.55H47.612V124.566H50.8765Z" fill="#30D158"/>
<path d="M64.431 115.731C64.8456 115.058 65.4415 114.514 66.2187 114.099C66.9959 113.685 67.8854 113.477 68.8872 113.477C70.079 113.477 71.1585 113.78 72.1257 114.384C73.093 114.989 73.8529 115.852 74.4056 116.975C74.9756 118.098 75.2606 119.402 75.2606 120.887C75.2606 122.373 74.9756 123.685 74.4056 124.825C73.8529 125.948 73.093 126.82 72.1257 127.442C71.1585 128.046 70.079 128.349 68.8872 128.349C67.8682 128.349 66.9787 128.15 66.2187 127.753C65.4587 127.338 64.8628 126.794 64.431 126.121V128.141H60.0008V108.969H64.431V115.731ZM70.7526 120.887C70.7526 119.782 70.4417 118.918 69.8199 118.296C69.2154 117.657 68.4641 117.338 67.5659 117.338C66.685 117.338 65.9337 117.657 65.3119 118.296C64.7074 118.935 64.4051 119.808 64.4051 120.913C64.4051 122.019 64.7074 122.891 65.3119 123.53C65.9337 124.169 66.685 124.488 67.5659 124.488C68.4468 124.488 69.1981 124.169 69.8199 123.53C70.4417 122.873 70.7526 121.993 70.7526 120.887Z" fill="#30D158"/>
<path d="M81.8056 119.022C81.8056 117.226 82.1943 115.628 82.9715 114.229C83.7487 112.813 84.8283 111.716 86.21 110.939C87.6091 110.144 89.1894 109.747 90.9512 109.747C93.1102 109.747 94.9583 110.317 96.4955 111.457C98.0327 112.597 99.0604 114.151 99.5786 116.12H94.7079C94.3451 115.36 93.827 114.782 93.1534 114.384C92.497 113.987 91.7457 113.788 90.8994 113.788C89.5349 113.788 88.4295 114.263 87.5831 115.213C86.7368 116.163 86.3137 117.433 86.3137 119.022C86.3137 120.611 86.7368 121.88 87.5831 122.83C88.4295 123.78 89.5349 124.255 90.8994 124.255C91.7457 124.255 92.497 124.057 93.1534 123.659C93.827 123.262 94.3451 122.684 94.7079 121.924H99.5786C99.0604 123.893 98.0327 125.447 96.4955 126.587C94.9583 127.71 93.1102 128.271 90.9512 128.271C89.1894 128.271 87.6091 127.882 86.21 127.105C84.8283 126.311 83.7487 125.214 82.9715 123.815C82.1943 122.416 81.8056 120.818 81.8056 119.022Z" fill="#30D158"/>
<path d="M101.152 120.913C101.152 119.41 101.454 118.098 102.058 116.975C102.68 115.852 103.535 114.989 104.623 114.384C105.729 113.78 106.99 113.477 108.406 113.477C110.22 113.477 111.731 113.952 112.94 114.902C114.166 115.852 114.969 117.191 115.349 118.918H110.634C110.237 117.813 109.468 117.26 108.328 117.26C107.516 117.26 106.869 117.58 106.385 118.219C105.901 118.84 105.66 119.739 105.66 120.913C105.66 122.088 105.901 122.994 106.385 123.633C106.869 124.255 107.516 124.566 108.328 124.566C109.468 124.566 110.237 124.013 110.634 122.908H115.349C114.969 124.601 114.166 125.931 112.94 126.898C111.714 127.865 110.202 128.349 108.406 128.349C106.99 128.349 105.729 128.046 104.623 127.442C103.535 126.837 102.68 125.974 102.058 124.851C101.454 123.728 101.152 122.416 101.152 120.913Z" fill="#30D158"/>
<path d="M129.505 109.954C131.422 109.954 133.098 110.334 134.531 111.094C135.965 111.854 137.07 112.925 137.847 114.307C138.642 115.671 139.039 117.251 139.039 119.048C139.039 120.827 138.642 122.407 137.847 123.789C137.07 125.171 135.956 126.242 134.505 127.002C133.072 127.761 131.405 128.141 129.505 128.141H122.691V109.954H129.505ZM129.22 124.307C130.895 124.307 132.199 123.849 133.132 122.934C134.065 122.019 134.531 120.723 134.531 119.048C134.531 117.372 134.065 116.068 133.132 115.136C132.199 114.203 130.895 113.737 129.22 113.737H127.121V124.307H129.22Z" fill="#30D158"/>
<path d="M140.375 120.887C140.375 119.402 140.651 118.098 141.204 116.975C141.774 115.852 142.543 114.989 143.51 114.384C144.477 113.78 145.557 113.477 146.748 113.477C147.698 113.477 148.562 113.676 149.339 114.073C150.134 114.471 150.756 115.006 151.205 115.68V108.969H155.635V128.141H151.205V126.069C150.79 126.76 150.194 127.312 149.417 127.727C148.657 128.141 147.768 128.349 146.748 128.349C145.557 128.349 144.477 128.046 143.51 127.442C142.543 126.82 141.774 125.948 141.204 124.825C140.651 123.685 140.375 122.373 140.375 120.887ZM151.205 120.913C151.205 119.808 150.894 118.935 150.272 118.296C149.667 117.657 148.925 117.338 148.044 117.338C147.163 117.338 146.412 117.657 145.79 118.296C145.185 118.918 144.883 119.782 144.883 120.887C144.883 121.993 145.185 122.873 145.79 123.53C146.412 124.169 147.163 124.488 148.044 124.488C148.925 124.488 149.667 124.169 150.272 123.53C150.894 122.891 151.205 122.019 151.205 120.913Z" fill="#30D158"/>
<path d="M168.242 113.503V117.182H174.175V120.602H168.242V124.592H174.953V128.141H163.812V109.954H174.953V113.503H168.242Z" fill="#30D158"/>
<path d="M191.197 120.68C191.197 121.094 191.171 121.526 191.12 121.975H181.093C181.162 122.873 181.447 123.564 181.948 124.048C182.466 124.514 183.097 124.748 183.84 124.748C184.945 124.748 185.714 124.281 186.145 123.348H190.861C190.619 124.298 190.178 125.153 189.539 125.913C188.917 126.673 188.132 127.269 187.182 127.701C186.232 128.133 185.169 128.349 183.995 128.349C182.579 128.349 181.318 128.046 180.212 127.442C179.107 126.837 178.243 125.974 177.622 124.851C177 123.728 176.689 122.416 176.689 120.913C176.689 119.41 176.991 118.098 177.596 116.975C178.217 115.852 179.081 114.989 180.186 114.384C181.292 113.78 182.561 113.477 183.995 113.477C185.394 113.477 186.638 113.771 187.726 114.358C188.814 114.946 189.66 115.783 190.265 116.871C190.887 117.96 191.197 119.229 191.197 120.68ZM186.664 119.514C186.664 118.754 186.404 118.15 185.886 117.701C185.368 117.251 184.72 117.027 183.943 117.027C183.2 117.027 182.57 117.243 182.052 117.675C181.551 118.106 181.24 118.72 181.119 119.514H186.664Z" fill="#30D158"/>
<path d="M210.347 109.954V113.503H202.937V117.338H208.481V120.784H202.937V128.141H198.507V109.954H210.347Z" fill="#30D158"/>
<path d="M219.67 117.364H217.287V128.141H212.857V117.364H211.25V113.685H212.857V113.27C212.857 111.491 213.366 110.144 214.385 109.229C215.404 108.296 216.898 107.83 218.867 107.83C219.195 107.83 219.437 107.838 219.593 107.855V111.612C218.746 111.56 218.15 111.681 217.805 111.975C217.46 112.268 217.287 112.795 217.287 113.555V113.685H219.67V117.364Z" fill="#30D158"/>
<path d="M238.797 115.706C238.469 115.101 237.994 114.643 237.372 114.332C236.768 114.004 236.051 113.84 235.222 113.84C233.789 113.84 232.64 114.315 231.776 115.265C230.913 116.198 230.481 117.45 230.481 119.022C230.481 120.697 230.93 122.01 231.828 122.96C232.744 123.893 233.996 124.359 235.585 124.359C236.673 124.359 237.588 124.083 238.331 123.53C239.091 122.977 239.644 122.183 239.989 121.146H234.367V117.882H244.005V122.001C243.677 123.107 243.115 124.134 242.321 125.084C241.544 126.034 240.551 126.803 239.342 127.39C238.132 127.977 236.768 128.271 235.248 128.271C233.452 128.271 231.845 127.882 230.429 127.105C229.03 126.311 227.933 125.214 227.139 123.815C226.362 122.416 225.973 120.818 225.973 119.022C225.973 117.226 226.362 115.628 227.139 114.229C227.933 112.813 229.03 111.716 230.429 110.939C231.828 110.144 233.426 109.747 235.222 109.747C237.398 109.747 239.229 110.274 240.715 111.327C242.217 112.381 243.21 113.84 243.694 115.706H238.797Z" fill="#30D158"/>
<path d="M251.692 113.477C252.711 113.477 253.601 113.685 254.361 114.099C255.138 114.514 255.734 115.058 256.149 115.731V113.685H260.579V128.116C260.579 129.446 260.311 130.646 259.776 131.717C259.258 132.805 258.454 133.669 257.366 134.308C256.295 134.947 254.957 135.266 253.35 135.266C251.209 135.266 249.473 134.757 248.143 133.738C246.813 132.736 246.053 131.371 245.863 129.644H250.241C250.38 130.197 250.708 130.629 251.226 130.94C251.744 131.268 252.383 131.432 253.143 131.432C254.059 131.432 254.784 131.164 255.319 130.629C255.872 130.11 256.149 129.273 256.149 128.116V126.069C255.717 126.742 255.121 127.295 254.361 127.727C253.601 128.141 252.711 128.349 251.692 128.349C250.501 128.349 249.421 128.046 248.454 127.442C247.487 126.82 246.718 125.948 246.148 124.825C245.595 123.685 245.319 122.373 245.319 120.887C245.319 119.402 245.595 118.098 246.148 116.975C246.718 115.852 247.487 114.989 248.454 114.384C249.421 113.78 250.501 113.477 251.692 113.477ZM256.149 120.913C256.149 119.808 255.838 118.935 255.216 118.296C254.611 117.657 253.869 117.338 252.988 117.338C252.107 117.338 251.356 117.657 250.734 118.296C250.129 118.918 249.827 119.782 249.827 120.887C249.827 121.993 250.129 122.873 250.734 123.53C251.356 124.169 252.107 124.488 252.988 124.488C253.869 124.488 254.611 124.169 255.216 123.53C255.838 122.891 256.149 122.019 256.149 120.913Z" fill="#30D158"/>
<path d="M284.508 109.954V128.141H280.078V120.654H273.186V128.141H268.756V109.954H273.186V117.079H280.078V109.954H284.508Z" fill="#30D158"/>
<path d="M296.334 113.529C297.992 113.529 299.322 114.082 300.324 115.187C301.325 116.276 301.826 117.778 301.826 119.695V128.141H297.422V120.291C297.422 119.324 297.171 118.573 296.671 118.037C296.17 117.502 295.496 117.234 294.65 117.234C293.803 117.234 293.13 117.502 292.629 118.037C292.128 118.573 291.878 119.324 291.878 120.291V128.141H287.447V108.969H291.878V115.628C292.327 114.989 292.94 114.479 293.717 114.099C294.494 113.719 295.367 113.529 296.334 113.529Z" fill="#30D158"/>
<path d="M314.307 109.954V128.141H309.877V109.954H314.307Z" fill="#30D158"/>
<path d="M319.487 112.182C318.71 112.182 318.071 111.958 317.57 111.508C317.086 111.042 316.844 110.472 316.844 109.799C316.844 109.108 317.086 108.538 317.57 108.089C318.071 107.622 318.71 107.389 319.487 107.389C320.247 107.389 320.869 107.622 321.352 108.089C321.853 108.538 322.104 109.108 322.104 109.799C322.104 110.472 321.853 111.042 321.352 111.508C320.869 111.958 320.247 112.182 319.487 112.182ZM321.689 113.685V128.141H317.259V113.685H321.689Z" fill="#30D158"/>
<path d="M341.271 109.954V122.338C341.271 124.255 340.727 125.732 339.639 126.768C338.568 127.805 337.117 128.323 335.287 128.323C333.369 128.323 331.832 127.779 330.675 126.691C329.518 125.602 328.939 124.057 328.939 122.053H333.343C333.343 122.813 333.499 123.392 333.81 123.789C334.121 124.169 334.57 124.359 335.157 124.359C335.692 124.359 336.107 124.186 336.401 123.841C336.694 123.495 336.841 122.994 336.841 122.338V109.954H341.271Z" fill="#30D158"/>
<path d="M346.793 112.182C346.016 112.182 345.377 111.958 344.876 111.508C344.392 111.042 344.15 110.472 344.15 109.799C344.15 109.108 344.392 108.538 344.876 108.089C345.377 107.622 346.016 107.389 346.793 107.389C347.553 107.389 348.175 107.622 348.658 108.089C349.159 108.538 349.41 109.108 349.41 109.799C349.41 110.472 349.159 111.042 348.658 111.508C348.175 111.958 347.553 112.182 346.793 112.182ZM349.021 130.007C349.021 131.786 348.572 133.064 347.674 133.841C346.776 134.636 345.523 135.033 343.917 135.033H342.181V131.276H343.244C343.727 131.276 344.073 131.181 344.28 130.991C344.487 130.801 344.591 130.49 344.591 130.059V113.685H349.021V130.007Z" fill="#30D158"/>
<path d="M367.723 128.141L361.609 120.11V128.141H357.178V109.954H361.609V117.934L367.671 109.954H372.879L365.832 118.866L373.138 128.141H367.723Z" fill="#30D158"/>
<path d="M383.819 128.141L379.414 122.079V128.141H374.984V108.969H379.414V119.566L383.793 113.685H389.26L383.249 120.939L389.311 128.141H383.819Z" fill="#30D158"/>
<path d="M6.21277 159.167H12.0162V162.586H1.78249V144.399H6.21277V159.167Z" fill="#30D158"/>
<path d="M18.3005 143.414V162.586H13.8702V143.414H18.3005Z" fill="#30D158"/>
<path d="M47.0801 144.399V162.586H42.6498V151.679L38.5823 162.586H35.007L30.9135 151.653V162.586H26.4832V144.399H31.7166L36.8205 156.99L41.8726 144.399H47.0801Z" fill="#30D158"/>
<path d="M68.4535 147.974C70.2498 147.974 71.6747 148.518 72.7283 149.607C73.7992 150.695 74.3346 152.206 74.3346 154.14V162.586H69.9302V154.736C69.9302 153.804 69.6798 153.087 69.1789 152.586C68.6953 152.068 68.0217 151.809 67.1581 151.809C66.2945 151.809 65.6122 152.068 65.1113 152.586C64.6277 153.087 64.3859 153.804 64.3859 154.736V162.586H59.9815V154.736C59.9815 153.804 59.7311 153.087 59.2302 152.586C58.7466 152.068 58.073 151.809 57.2094 151.809C56.3458 151.809 55.6635 152.068 55.1626 152.586C54.679 153.087 54.4372 153.804 54.4372 154.736V162.586H50.0069V148.13H54.4372V149.943C54.8863 149.339 55.4735 148.864 56.199 148.518C56.9244 148.156 57.7448 147.974 58.6602 147.974C59.7484 147.974 60.7156 148.207 61.5619 148.674C62.4255 149.14 63.0991 149.805 63.5828 150.669C64.0836 149.874 64.7659 149.227 65.6295 148.726C66.4931 148.225 67.4344 147.974 68.4535 147.974Z" fill="#30D158"/>
<path d="M98.6754 162.586H94.2452L86.8355 151.368V162.586H82.4052V144.399H86.8355L94.2452 155.669V144.399H98.6754V162.586Z" fill="#30D158"/>
<path d="M110.436 147.974C112.129 147.974 113.476 148.527 114.478 149.632C115.497 150.721 116.007 152.223 116.007 154.14V162.586H111.602V154.736C111.602 153.769 111.352 153.018 110.851 152.482C110.35 151.947 109.677 151.679 108.83 151.679C107.984 151.679 107.31 151.947 106.809 152.482C106.308 153.018 106.058 153.769 106.058 154.736V162.586H101.628V148.13H106.058V150.047C106.507 149.408 107.112 148.907 107.872 148.544C108.632 148.164 109.487 147.974 110.436 147.974Z" fill="#30D158"/>
<path d="M132.659 162.768C130.949 162.768 129.377 162.371 127.944 161.576C126.527 160.782 125.396 159.676 124.55 158.26C123.721 156.826 123.306 155.22 123.306 153.441C123.306 151.662 123.721 150.064 124.55 148.648C125.396 147.232 126.527 146.126 127.944 145.332C129.377 144.537 130.949 144.14 132.659 144.14C134.369 144.14 135.932 144.537 137.348 145.332C138.782 146.126 139.905 147.232 140.716 148.648C141.545 150.064 141.96 151.662 141.96 153.441C141.96 155.22 141.545 156.826 140.716 158.26C139.887 159.676 138.765 160.782 137.348 161.576C135.932 162.371 134.369 162.768 132.659 162.768ZM132.659 158.726C134.11 158.726 135.267 158.243 136.131 157.275C137.011 156.308 137.452 155.03 137.452 153.441C137.452 151.835 137.011 150.556 136.131 149.607C135.267 148.639 134.11 148.156 132.659 148.156C131.191 148.156 130.016 148.631 129.135 149.581C128.272 150.531 127.84 151.817 127.84 153.441C127.84 155.047 128.272 156.334 129.135 157.301C130.016 158.251 131.191 158.726 132.659 158.726Z" fill="#30D158"/>
<path d="M150.746 162.794C149.33 162.794 148.052 162.491 146.912 161.887C145.789 161.282 144.9 160.419 144.243 159.296C143.604 158.173 143.285 156.861 143.285 155.358C143.285 153.873 143.613 152.569 144.269 151.446C144.926 150.306 145.824 149.434 146.964 148.829C148.104 148.225 149.382 147.922 150.798 147.922C152.214 147.922 153.492 148.225 154.632 148.829C155.772 149.434 156.671 150.306 157.327 151.446C157.983 152.569 158.311 153.873 158.311 155.358C158.311 156.844 157.975 158.156 157.301 159.296C156.645 160.419 155.738 161.282 154.581 161.887C153.441 162.491 152.163 162.794 150.746 162.794ZM150.746 158.959C151.593 158.959 152.309 158.648 152.897 158.027C153.501 157.405 153.803 156.515 153.803 155.358C153.803 154.201 153.51 153.311 152.922 152.69C152.353 152.068 151.644 151.757 150.798 151.757C149.934 151.757 149.218 152.068 148.648 152.69C148.078 153.294 147.793 154.184 147.793 155.358C147.793 156.515 148.069 157.405 148.622 158.027C149.192 158.648 149.9 158.959 150.746 158.959Z" fill="#30D158"/>
<path d="M179.495 150.254C179.495 151.308 179.253 152.275 178.769 153.156C178.286 154.02 177.543 154.719 176.541 155.254C175.539 155.79 174.296 156.058 172.81 156.058H170.064V162.586H165.634V144.399H172.81C174.261 144.399 175.488 144.649 176.489 145.15C177.491 145.651 178.242 146.342 178.743 147.223C179.244 148.104 179.495 149.114 179.495 150.254ZM172.474 152.534C173.32 152.534 173.95 152.335 174.365 151.938C174.779 151.541 174.987 150.98 174.987 150.254C174.987 149.529 174.779 148.967 174.365 148.57C173.95 148.173 173.32 147.974 172.474 147.974H170.064V152.534H172.474Z" fill="#30D158"/>
<path d="M185.972 150.176C186.404 149.503 187 148.959 187.76 148.544C188.52 148.13 189.409 147.922 190.428 147.922C191.62 147.922 192.7 148.225 193.667 148.829C194.634 149.434 195.394 150.297 195.947 151.42C196.517 152.543 196.802 153.847 196.802 155.332C196.802 156.818 196.517 158.13 195.947 159.27C195.394 160.393 194.634 161.265 193.667 161.887C192.7 162.491 191.62 162.794 190.428 162.794C189.427 162.794 188.537 162.586 187.76 162.172C187 161.757 186.404 161.222 185.972 160.566V169.478H181.542V148.13H185.972V150.176ZM192.294 155.332C192.294 154.227 191.983 153.363 191.361 152.741C190.757 152.102 190.005 151.783 189.107 151.783C188.226 151.783 187.475 152.102 186.853 152.741C186.249 153.38 185.946 154.253 185.946 155.358C185.946 156.464 186.249 157.336 186.853 157.975C187.475 158.614 188.226 158.933 189.107 158.933C189.988 158.933 190.739 158.614 191.361 157.975C191.983 157.318 192.294 156.438 192.294 155.332Z" fill="#30D158"/>
<path d="M217.052 165.695L214.721 162.561C214.03 162.699 213.356 162.768 212.7 162.768C210.99 162.768 209.418 162.371 207.984 161.576C206.568 160.782 205.437 159.676 204.59 158.26C203.761 156.826 203.347 155.22 203.347 153.441C203.347 151.662 203.761 150.064 204.59 148.648C205.437 147.232 206.568 146.126 207.984 145.332C209.418 144.537 210.99 144.14 212.7 144.14C214.41 144.14 215.973 144.537 217.389 145.332C218.823 146.126 219.945 147.232 220.757 148.648C221.586 150.064 222.001 151.662 222.001 153.441C222.001 154.995 221.681 156.42 221.042 157.716C220.42 158.994 219.548 160.056 218.425 160.902L222.415 165.695H217.052ZM207.881 153.441C207.881 155.047 208.313 156.334 209.176 157.301C210.057 158.251 211.232 158.726 212.7 158.726C214.151 158.726 215.308 158.243 216.171 157.275C217.052 156.308 217.493 155.03 217.493 153.441C217.493 151.835 217.052 150.556 216.171 149.607C215.308 148.639 214.151 148.156 212.7 148.156C211.232 148.156 210.057 148.631 209.176 149.581C208.313 150.531 207.881 151.817 207.881 153.441Z" fill="#30D158"/>
<path d="M223.376 155.384C223.376 153.95 223.67 152.672 224.257 151.55C224.861 150.427 225.665 149.555 226.666 148.933C227.685 148.294 228.791 147.974 229.983 147.974C230.898 147.974 231.718 148.138 232.444 148.467C233.169 148.777 233.757 149.218 234.206 149.788V148.13H238.636V169.478H234.206V160.773C233.705 161.377 233.092 161.861 232.366 162.224C231.658 162.586 230.846 162.768 229.931 162.768C228.756 162.768 227.668 162.457 226.666 161.835C225.665 161.213 224.861 160.341 224.257 159.218C223.67 158.096 223.376 156.818 223.376 155.384ZM234.206 155.358C234.206 154.581 234.05 153.933 233.739 153.415C233.446 152.88 233.057 152.482 232.573 152.223C232.09 151.947 231.58 151.809 231.045 151.809C230.527 151.809 230.026 151.947 229.542 152.223C229.059 152.482 228.661 152.88 228.35 153.415C228.039 153.95 227.884 154.607 227.884 155.384C227.884 156.161 228.039 156.818 228.35 157.353C228.661 157.871 229.059 158.268 229.542 158.545C230.026 158.804 230.527 158.933 231.045 158.933C231.563 158.933 232.064 158.804 232.548 158.545C233.048 158.268 233.446 157.863 233.739 157.327C234.05 156.792 234.206 156.135 234.206 155.358Z" fill="#30D158"/>
<path d="M256.088 162.586L252.306 155.721H251.243V162.586H246.813V144.399H254.249C255.682 144.399 256.9 144.649 257.902 145.15C258.921 145.651 259.681 146.342 260.182 147.223C260.683 148.087 260.933 149.054 260.933 150.125C260.933 151.334 260.588 152.413 259.897 153.363C259.223 154.313 258.221 154.987 256.891 155.384L261.088 162.586H256.088ZM251.243 152.586H253.99C254.801 152.586 255.406 152.387 255.803 151.99C256.218 151.593 256.425 151.031 256.425 150.306C256.425 149.615 256.218 149.071 255.803 148.674C255.406 148.277 254.801 148.078 253.99 148.078H251.243V152.586Z" fill="#30D158"/>
<path d="M267.885 150.539C268.403 149.745 269.051 149.123 269.828 148.674C270.606 148.207 271.469 147.974 272.419 147.974V152.664H271.202C270.096 152.664 269.267 152.905 268.714 153.389C268.162 153.855 267.885 154.684 267.885 155.876V162.586H263.455V148.13H267.885V150.539Z" fill="#30D158"/>
<path d="M286.09 162.768C284.76 162.768 283.568 162.552 282.514 162.12C281.461 161.688 280.614 161.049 279.975 160.203C279.353 159.357 279.025 158.338 278.991 157.146H283.706C283.775 157.819 284.008 158.338 284.406 158.7C284.803 159.046 285.321 159.218 285.96 159.218C286.616 159.218 287.135 159.072 287.515 158.778C287.895 158.467 288.084 158.044 288.084 157.508C288.084 157.059 287.929 156.688 287.618 156.394C287.325 156.101 286.953 155.859 286.504 155.669C286.072 155.479 285.451 155.263 284.639 155.021C283.464 154.659 282.506 154.296 281.763 153.933C281.02 153.57 280.381 153.035 279.846 152.327C279.31 151.619 279.043 150.695 279.043 149.555C279.043 147.862 279.656 146.541 280.882 145.591C282.108 144.624 283.706 144.14 285.675 144.14C287.679 144.14 289.294 144.624 290.52 145.591C291.746 146.541 292.403 147.871 292.489 149.581H287.696C287.661 148.993 287.445 148.536 287.048 148.207C286.651 147.862 286.141 147.689 285.52 147.689C284.984 147.689 284.552 147.836 284.224 148.13C283.896 148.406 283.732 148.812 283.732 149.347C283.732 149.935 284.008 150.392 284.561 150.721C285.114 151.049 285.977 151.403 287.152 151.783C288.326 152.18 289.276 152.56 290.002 152.923C290.744 153.285 291.383 153.812 291.919 154.503C292.454 155.194 292.722 156.084 292.722 157.172C292.722 158.208 292.454 159.149 291.919 159.996C291.401 160.842 290.641 161.516 289.639 162.016C288.637 162.517 287.454 162.768 286.09 162.768Z" fill="#30D158"/>
<path d="M301.071 162.794C299.81 162.794 298.687 162.578 297.702 162.146C296.718 161.714 295.941 161.127 295.371 160.384C294.801 159.624 294.481 158.778 294.412 157.845H298.791C298.842 158.346 299.076 158.752 299.49 159.063C299.905 159.374 300.414 159.529 301.019 159.529C301.571 159.529 301.995 159.426 302.288 159.218C302.599 158.994 302.755 158.709 302.755 158.363C302.755 157.949 302.539 157.647 302.107 157.457C301.675 157.249 300.976 157.025 300.008 156.783C298.972 156.541 298.108 156.291 297.417 156.032C296.727 155.755 296.131 155.332 295.63 154.762C295.129 154.175 294.878 153.389 294.878 152.405C294.878 151.576 295.103 150.824 295.552 150.151C296.018 149.46 296.692 148.916 297.573 148.518C298.471 148.121 299.533 147.922 300.76 147.922C302.573 147.922 303.998 148.372 305.034 149.27C306.088 150.168 306.693 151.36 306.848 152.845H302.755C302.685 152.344 302.461 151.947 302.081 151.653C301.718 151.36 301.235 151.213 300.63 151.213C300.112 151.213 299.715 151.316 299.438 151.524C299.162 151.714 299.024 151.981 299.024 152.327C299.024 152.741 299.24 153.052 299.671 153.26C300.121 153.467 300.811 153.674 301.744 153.881C302.815 154.158 303.687 154.434 304.361 154.71C305.034 154.969 305.622 155.401 306.123 156.006C306.641 156.593 306.908 157.388 306.926 158.389C306.926 159.236 306.684 159.996 306.2 160.669C305.734 161.326 305.052 161.844 304.154 162.224C303.273 162.604 302.245 162.794 301.071 162.794Z" fill="#30D158"/>
<path d="M327.692 144.399V147.948H322.873V162.586H318.443V147.948H313.624V144.399H327.692Z" fill="#30D158"/>
<path d="M337.714 158.83V162.586H335.46C333.853 162.586 332.601 162.198 331.703 161.421C330.805 160.626 330.356 159.339 330.356 157.56V151.809H328.594V148.13H330.356V144.606H334.786V148.13H337.688V151.809H334.786V157.612C334.786 158.044 334.89 158.355 335.097 158.545C335.304 158.735 335.65 158.83 336.133 158.83H337.714Z" fill="#30D158"/>
<path d="M349.506 144.399V155.28C349.506 156.369 349.774 157.206 350.309 157.793C350.845 158.381 351.631 158.674 352.667 158.674C353.703 158.674 354.498 158.381 355.05 157.793C355.603 157.206 355.879 156.369 355.879 155.28V144.399H360.31V155.254C360.31 156.878 359.964 158.251 359.273 159.374C358.583 160.497 357.65 161.343 356.475 161.913C355.318 162.483 354.023 162.768 352.589 162.768C351.156 162.768 349.869 162.491 348.729 161.939C347.606 161.369 346.717 160.522 346.06 159.4C345.404 158.26 345.076 156.878 345.076 155.254V144.399H349.506Z" fill="#30D158"/>
<path d="M377.437 148.13V162.586H373.007V160.617C372.558 161.257 371.944 161.775 371.167 162.172C370.407 162.552 369.561 162.742 368.628 162.742C367.523 162.742 366.547 162.5 365.701 162.016C364.854 161.516 364.198 160.799 363.732 159.866C363.265 158.933 363.032 157.837 363.032 156.576V148.13H367.436V155.98C367.436 156.947 367.687 157.698 368.188 158.234C368.689 158.769 369.362 159.037 370.209 159.037C371.072 159.037 371.754 158.769 372.255 158.234C372.756 157.698 373.007 156.947 373.007 155.98V148.13H377.437Z" fill="#30D158"/>
<path d="M18.8559 178.844L12.4048 197.031H6.86047L0.409363 178.844H5.12463L9.63264 192.575L14.1665 178.844H18.8559Z" fill="#30D158"/>
<path d="M26.9514 192.886L30.0862 182.575H34.8015L29.6717 197.031H24.2051L19.0753 182.575H23.8165L26.9514 192.886Z" fill="#30D158"/>
<path d="M66.6656 178.844L61.9244 197.031H56.5615L53.6598 185.062L50.6544 197.031H45.2915L40.6798 178.844H45.421L48.0377 192.083L51.2762 178.844H56.1469L59.2559 192.083L61.8985 178.844H66.6656Z" fill="#30D158"/>
<path d="M89.3807 182.575L85.4686 197.031H80.572L78.2921 187.653L75.9344 197.031H71.0637L67.1257 182.575H71.556L73.6027 192.912L76.0381 182.575H80.7274L83.1887 192.86L85.2095 182.575H89.3807Z" fill="#30D158"/>
<path d="M107.183 197.031L103.478 191.461L100.214 197.031H95.1874L101.017 187.782L95.0578 178.844H100.214L103.867 184.337L107.079 178.844H112.105L106.328 188.015L112.339 197.031H107.183Z" fill="#30D158"/>
<path d="M122.853 197.031L120.081 193.016L117.749 197.031H112.956L117.723 189.648L112.827 182.575H117.801L120.573 186.565L122.905 182.575H127.698L122.853 189.855L127.827 197.031H122.853Z" fill="#30D158"/>
<path d="M150.103 178.844L143.808 191.021V197.031H139.377V191.021L133.082 178.844H138.108L141.631 186.461L145.129 178.844H150.103Z" fill="#30D158"/>
<path d="M166.397 182.575L157.329 203.897H152.562L155.878 196.539L149.997 182.575H154.946L158.288 191.617L161.604 182.575H166.397Z" fill="#30D158"/>
<path d="M177.686 193.404H185.511V197.031H172.66V193.663L180.433 182.471H172.66V178.844H185.511V182.212L177.686 193.404Z" fill="#30D158"/>
<path d="M192.291 193.378H198.561V197.031H187.342V193.508L193.353 186.228H187.394V182.575H198.431V186.098L192.291 193.378Z" fill="#30D158"/>
<path d="M205.53 187.316C205.53 184.345 206.1 182.005 207.24 180.295C208.397 178.585 210.254 177.73 212.81 177.73C215.366 177.73 217.215 178.585 218.355 180.295C219.512 182.005 220.09 184.345 220.09 187.316C220.09 190.321 219.512 192.679 218.355 194.389C217.215 196.099 215.366 196.954 212.81 196.954C210.254 196.954 208.397 196.099 207.24 194.389C206.1 192.679 205.53 190.321 205.53 187.316ZM215.738 187.316C215.738 185.571 215.548 184.233 215.168 183.3C214.788 182.35 214.002 181.875 212.81 181.875C211.618 181.875 210.833 182.35 210.453 183.3C210.073 184.233 209.883 185.571 209.883 187.316C209.883 188.49 209.952 189.466 210.09 190.244C210.228 191.004 210.504 191.625 210.919 192.109C211.351 192.575 211.981 192.808 212.81 192.808C213.639 192.808 214.261 192.575 214.676 192.109C215.107 191.625 215.392 191.004 215.531 190.244C215.669 189.466 215.738 188.49 215.738 187.316Z" fill="#30D158"/>
<path d="M221.706 182.238V178.119H228.882V197.031H224.27V182.238H221.706Z" fill="#30D158"/>
<path d="M231.498 193.482C232.085 193.016 232.353 192.8 232.301 192.834C233.994 191.435 235.324 190.287 236.291 189.389C237.276 188.49 238.105 187.549 238.778 186.565C239.452 185.58 239.789 184.621 239.789 183.689C239.789 182.981 239.625 182.428 239.297 182.031C238.968 181.633 238.476 181.435 237.82 181.435C237.163 181.435 236.645 181.685 236.265 182.186C235.903 182.67 235.721 183.361 235.721 184.259H231.446C231.481 182.791 231.792 181.564 232.379 180.58C232.984 179.595 233.77 178.87 234.737 178.404C235.721 177.937 236.809 177.704 238.001 177.704C240.057 177.704 241.602 178.231 242.639 179.284C243.692 180.338 244.219 181.711 244.219 183.404C244.219 185.252 243.589 186.97 242.328 188.559C241.067 190.131 239.461 191.668 237.509 193.171H244.504V196.772H231.498V193.482Z" fill="#30D158"/>
<path d="M246.351 183.456C246.42 181.608 247.025 180.183 248.165 179.181C249.305 178.179 250.85 177.678 252.802 177.678C254.098 177.678 255.203 177.903 256.118 178.352C257.051 178.801 257.751 179.414 258.217 180.191C258.701 180.968 258.942 181.841 258.942 182.808C258.942 183.948 258.657 184.881 258.087 185.606C257.517 186.314 256.852 186.798 256.092 187.057V187.16C257.077 187.489 257.854 188.033 258.424 188.793C258.994 189.553 259.279 190.529 259.279 191.72C259.279 192.791 259.029 193.741 258.528 194.57C258.044 195.382 257.327 196.021 256.377 196.487C255.445 196.954 254.331 197.187 253.035 197.187C250.963 197.187 249.305 196.677 248.061 195.658C246.835 194.639 246.187 193.102 246.118 191.047H250.419C250.436 191.807 250.652 192.411 251.066 192.86C251.481 193.292 252.085 193.508 252.88 193.508C253.554 193.508 254.072 193.318 254.434 192.938C254.814 192.541 255.004 192.023 255.004 191.383C255.004 190.554 254.737 189.959 254.201 189.596C253.683 189.216 252.845 189.026 251.688 189.026H250.859V185.425H251.688C252.569 185.425 253.277 185.278 253.813 184.984C254.365 184.673 254.642 184.129 254.642 183.352C254.642 182.73 254.469 182.247 254.123 181.901C253.778 181.556 253.303 181.383 252.699 181.383C252.042 181.383 251.55 181.582 251.222 181.979C250.911 182.376 250.73 182.868 250.678 183.456H246.351Z" fill="#30D158"/>
<path d="M261.727 193.663V190.088L269.914 178.378H274.862V189.829H276.987V193.663H274.862V197.031H270.432V193.663H261.727ZM270.743 183.248L266.39 189.829H270.743V183.248Z" fill="#30D158"/>
<path d="M292.214 181.979H284.131V185.554C284.476 185.174 284.96 184.863 285.582 184.621C286.204 184.38 286.877 184.259 287.603 184.259C288.898 184.259 289.969 184.552 290.815 185.14C291.679 185.727 292.309 186.487 292.706 187.42C293.104 188.352 293.302 189.363 293.302 190.451C293.302 192.472 292.732 194.078 291.592 195.27C290.452 196.444 288.846 197.031 286.774 197.031C285.392 197.031 284.191 196.798 283.172 196.332C282.153 195.848 281.367 195.183 280.815 194.337C280.262 193.491 279.96 192.515 279.908 191.409H284.235C284.338 191.945 284.589 192.394 284.986 192.757C285.383 193.102 285.927 193.275 286.618 193.275C287.43 193.275 288.034 193.016 288.432 192.498C288.829 191.979 289.028 191.288 289.028 190.425C289.028 189.579 288.82 188.931 288.406 188.482C287.991 188.033 287.387 187.808 286.592 187.808C286.005 187.808 285.521 187.955 285.141 188.249C284.761 188.525 284.511 188.896 284.39 189.363H280.115V178.093H292.214V181.979Z" fill="#30D158"/>
<path d="M304.842 183.222C304.703 182.583 304.462 182.108 304.116 181.798C303.771 181.469 303.278 181.305 302.639 181.305C301.655 181.305 300.947 181.737 300.515 182.601C300.083 183.447 299.859 184.794 299.841 186.642C300.221 186.038 300.765 185.563 301.474 185.217C302.199 184.872 302.993 184.699 303.857 184.699C305.55 184.699 306.906 185.235 307.925 186.306C308.961 187.376 309.479 188.87 309.479 190.788C309.479 192.048 309.22 193.154 308.702 194.104C308.201 195.054 307.458 195.796 306.474 196.332C305.507 196.867 304.358 197.135 303.028 197.135C300.368 197.135 298.52 196.306 297.484 194.648C296.447 192.973 295.929 190.572 295.929 187.445C295.929 184.164 296.473 181.728 297.561 180.139C298.667 178.533 300.429 177.73 302.847 177.73C304.142 177.73 305.23 177.989 306.111 178.507C307.009 179.008 307.683 179.673 308.132 180.502C308.598 181.331 308.875 182.238 308.961 183.222H304.842ZM302.795 188.197C302.052 188.197 301.43 188.421 300.929 188.87C300.446 189.302 300.204 189.924 300.204 190.736C300.204 191.565 300.429 192.213 300.878 192.679C301.344 193.145 302 193.378 302.847 193.378C303.607 193.378 304.202 193.154 304.634 192.705C305.083 192.238 305.308 191.608 305.308 190.814C305.308 190.002 305.092 189.363 304.66 188.896C304.228 188.43 303.607 188.197 302.795 188.197Z" fill="#30D158"/>
<path d="M323.799 181.435L317.296 197.031H312.762L319.343 181.927H311.285V178.144H323.799V181.435Z" fill="#30D158"/>
<path d="M328.441 186.875C326.817 186.012 326.005 184.656 326.005 182.808C326.005 181.875 326.247 181.029 326.731 180.269C327.214 179.492 327.948 178.879 328.933 178.429C329.917 177.963 331.126 177.73 332.56 177.73C333.994 177.73 335.194 177.963 336.161 178.429C337.146 178.879 337.88 179.492 338.363 180.269C338.847 181.029 339.089 181.875 339.089 182.808C339.089 183.741 338.864 184.552 338.415 185.243C337.983 185.934 337.396 186.478 336.653 186.875C337.586 187.325 338.303 187.946 338.804 188.741C339.305 189.518 339.555 190.434 339.555 191.487C339.555 192.713 339.244 193.776 338.622 194.674C338.001 195.555 337.154 196.228 336.083 196.695C335.03 197.161 333.855 197.394 332.56 197.394C331.265 197.394 330.081 197.161 329.011 196.695C327.957 196.228 327.119 195.555 326.497 194.674C325.876 193.776 325.565 192.713 325.565 191.487C325.565 190.416 325.815 189.492 326.316 188.715C326.817 187.92 327.525 187.307 328.441 186.875ZM334.788 183.482C334.788 182.773 334.581 182.229 334.166 181.849C333.769 181.452 333.234 181.253 332.56 181.253C331.886 181.253 331.342 181.452 330.928 181.849C330.53 182.247 330.332 182.799 330.332 183.507C330.332 184.181 330.539 184.716 330.954 185.114C331.368 185.494 331.904 185.684 332.56 185.684C333.216 185.684 333.752 185.485 334.166 185.088C334.581 184.691 334.788 184.155 334.788 183.482ZM332.56 188.793C331.748 188.793 331.092 189.017 330.591 189.466C330.09 189.898 329.84 190.503 329.84 191.28C329.84 192.005 330.081 192.601 330.565 193.068C331.066 193.534 331.731 193.767 332.56 193.767C333.389 193.767 334.037 193.534 334.503 193.068C334.987 192.601 335.228 192.005 335.228 191.28C335.228 190.52 334.978 189.915 334.477 189.466C333.994 189.017 333.354 188.793 332.56 188.793Z" fill="#30D158"/>
<path d="M346.639 191.487C346.898 192.852 347.693 193.534 349.023 193.534C349.938 193.534 350.586 193.128 350.966 192.316C351.346 191.504 351.536 190.183 351.536 188.352C351.156 188.888 350.638 189.302 349.981 189.596C349.325 189.889 348.591 190.036 347.779 190.036C346.674 190.036 345.689 189.812 344.826 189.363C343.962 188.896 343.28 188.214 342.779 187.316C342.295 186.401 342.054 185.295 342.054 184C342.054 182.722 342.313 181.608 342.831 180.658C343.366 179.708 344.118 178.974 345.085 178.455C346.069 177.937 347.227 177.678 348.557 177.678C351.113 177.678 352.9 178.473 353.92 180.062C354.939 181.651 355.448 183.991 355.448 187.083C355.448 189.328 355.241 191.185 354.826 192.653C354.429 194.104 353.747 195.209 352.78 195.969C351.83 196.729 350.526 197.109 348.867 197.109C347.555 197.109 346.432 196.85 345.499 196.332C344.584 195.814 343.876 195.132 343.375 194.285C342.891 193.439 342.615 192.506 342.546 191.487H346.639ZM348.79 186.539C349.515 186.539 350.094 186.323 350.526 185.891C350.957 185.442 351.173 184.837 351.173 184.077C351.173 183.248 350.949 182.609 350.5 182.16C350.051 181.711 349.446 181.487 348.686 181.487C347.926 181.487 347.322 181.72 346.873 182.186C346.441 182.635 346.225 183.257 346.225 184.052C346.225 184.794 346.441 185.399 346.873 185.865C347.322 186.314 347.961 186.539 348.79 186.539Z" fill="#30D158"/>
</svg>
