<svg width="627" height="103" viewBox="0 0 627 103" fill="none" xmlns="http://www.w3.org/2000/svg">
<path d="M63.4625 90.1505C80.4492 71.3236 78.0428 45.9852 56.951 31.405L74.2208 13.7105C57.9419 -3.1346 26.375 -4.83327 11.2285 13.0027C-4.76724 32.1127 -2.6439 54.9032 18.0232 71.4652L1.46121 88.8765C19.1557 108.694 49.0239 106.288 63.4625 90.1505Z" fill="#4187ED"/>
<path d="M85.9046 100.909H181.879L133.892 0.404285L85.9046 100.909Z" fill="#4187ED"/>
<path d="M235.644 1.81984H193.177V100.909H235.644V86.7532C259.001 86.7532 278.111 67.7847 278.111 44.145C278.111 20.9298 259.001 1.81984 235.644 1.81984Z" fill="#4187ED"/>
<path d="M289.391 100.909H331.857V1.81984H289.391V100.909Z" fill="#4187ED"/>
<path d="M394.388 102.703C413.051 102.703 431.175 92.2952 440.148 74.1709L395.285 51.7398H444.813C444.813 23.2075 422.203 0.417513 394.388 0.417513C365.856 0.417513 343.066 23.2075 343.066 51.7398C343.066 79.7338 365.856 102.703 394.388 102.703Z" fill="#4187ED"/>
<path d="M455.846 100.909H505.391V83.7805L540.78 100.909V1.81984H491.235V18.8065L455.846 1.81984V100.909Z" fill="#4187ED"/>
<path d="M614.911 90.1505C631.897 71.3236 629.491 45.9852 608.399 31.405L625.669 13.7105C609.39 -3.1346 577.823 -4.83327 562.677 13.0027C546.681 32.1127 548.804 54.9032 569.471 71.4652L552.909 88.8765C570.604 108.694 600.472 106.288 614.911 90.1505Z" fill="#4187ED"/>
</svg>
