<svg width="435" height="73" viewBox="0 0 435 73" fill="none" xmlns="http://www.w3.org/2000/svg">
<path d="M45.1281 63.1662C57.0741 49.9261 55.3817 32.1067 40.5488 21.8531L52.6939 9.4094C41.2457 -2.437 19.0461 -3.63159 8.39433 8.91165C-2.85477 22.3508 -1.36153 38.3783 13.1727 50.0256L1.52541 62.2702C13.9691 76.2072 34.9741 74.5148 45.1281 63.1662Z" fill="#4187ED"/>
<path d="M54.9804 70.7319H122.475L88.7277 0.0517414L54.9804 70.7319Z" fill="#51B581"/>
<path d="M160.285 1.04724H130.42V70.7319H160.285V60.777C176.711 60.777 190.15 47.4373 190.15 30.8126C190.15 14.4864 176.711 1.04724 160.285 1.04724Z" fill="#F9A03F"/>
<path d="M198.083 70.7319H227.948V1.04724H198.083V70.7319Z" fill="#F72586"/>
<path d="M271.923 71.9939C285.048 71.9939 297.793 64.6744 304.103 51.9284L272.554 36.1537H307.385C307.385 16.0882 291.484 0.0610438 271.923 0.0610438C251.857 0.0610438 235.83 16.0882 235.83 36.1537C235.83 55.8406 251.857 71.9939 271.923 71.9939Z" fill="#9B51E0"/>
<path d="M315.144 70.7319H349.986V58.6864L374.873 70.7319V1.04724H340.031V12.9932L315.144 1.04724V70.7319Z" fill="#FFC43D"/>
<path d="M427.006 63.1662C438.952 49.9261 437.26 32.1067 422.427 21.8531L434.572 9.4094C423.124 -2.437 400.924 -3.63159 390.272 8.91165C379.023 22.3508 380.517 38.3783 395.051 50.0256L383.403 62.2702C395.847 76.2072 416.852 74.5148 427.006 63.1662Z" fill="#4187ED"/>
</svg>
